<svg xmlns="http://www.w3.org/2000/svg" viewBox="0 0 505.98 558.01"><defs><style>.cls-1{fill:#6ea8fe;opacity:0.1;isolation:isolate;}.cls-2{fill:#3f3d56;}.cls-3{fill:#fff;}.cls-4{fill:#0d6efd;}.cls-5{fill:#e6e6e6;}.cls-6{fill:#ffb8b8;}.cls-7{fill:#2f2e41;}.cls-8{fill:#ccc;}</style></defs><g id="Livello_2" data-name="Livello 2"><g id="Livello_1-2" data-name="Livello 1"><circle class="cls-1" cx="259.48" cy="248.51" r="231.5"/><path class="cls-2" d="M263.44,168.05h-2.65V95.43a42,42,0,0,0-42-42H64.9a42,42,0,0,0-42,42h0v398.4a42,42,0,0,0,42,42H218.76a42,42,0,0,0,42-42h0V219.75h2.65Z"/><path class="cls-3" d="M220.14,65.33H200.05a14.92,14.92,0,0,1-13.8,20.55H98.1A14.91,14.91,0,0,1,84.3,65.33H65.54A31.4,31.4,0,0,0,34.15,96.72V494.53a31.39,31.39,0,0,0,31.39,31.39h154.6a31.38,31.38,0,0,0,31.38-31.39V96.72a31.39,31.39,0,0,0-31.38-31.39Zm-3.38,184.55a8.14,8.14,0,0,1-8.13,8.13H169.34a8.14,8.14,0,0,1-8.13-8.13v-2a8.14,8.14,0,0,1,8.13-8.13h39.29a8.14,8.14,0,0,1,8.13,8.13Zm4.4-35.91A8.14,8.14,0,0,1,213,222.1H72.11A8.16,8.16,0,0,1,64,214v-2a8.16,8.16,0,0,1,8.13-8.13H213a8.15,8.15,0,0,1,8.13,8.13Zm0-35.9A8.16,8.16,0,0,1,213,186.2H72.11A8.17,8.17,0,0,1,64,178.07v-2a8.17,8.17,0,0,1,8.13-8.13H213a8.16,8.16,0,0,1,8.13,8.13Zm0-35.91a8.16,8.16,0,0,1-8.13,8.13H72.11A8.17,8.17,0,0,1,64,142.16v-2A8.16,8.16,0,0,1,72.11,132H213a8.14,8.14,0,0,1,8.13,8.13Z"/><circle class="cls-3" cx="75.16" cy="213.3" r="4.74"/><circle class="cls-3" cx="90.75" cy="213.3" r="4.74"/><circle class="cls-3" cx="106.33" cy="213.3" r="4.74"/><circle class="cls-3" cx="121.91" cy="213.3" r="4.74"/><circle class="cls-3" cx="172.72" cy="249.2" r="4.74"/><circle class="cls-3" cx="188.31" cy="249.2" r="4.74"/><circle class="cls-3" cx="203.89" cy="249.2" r="4.74"/><path class="cls-4" d="M222.26,310.65H61.54A14.25,14.25,0,0,0,47.3,324.89v78.3a14.24,14.24,0,0,0,14.24,14.24H222.26a14.23,14.23,0,0,0,14.23-14.24v-78.3a14.24,14.24,0,0,0-14.23-14.24Zm-164.7,9.71c.32-.05,7.85-1.33,14.08,2.41s8.62,11,8.72,11.31l.25.78-.81.15a21.37,21.37,0,0,1-3.48.25,20.75,20.75,0,0,1-10.59-2.67c-6.23-3.75-8.63-11-8.72-11.3l-.26-.78Zm34.89,72.7H63.78a7.88,7.88,0,0,1,0-15.76H92.45a7.88,7.88,0,0,1,0,15.76Zm130.43-1.43a8.63,8.63,0,0,1-8.6,8.6h-21.5a8.62,8.62,0,0,1-8.6-8.6v-12.9a8.63,8.63,0,0,1,8.6-8.6h21.5a8.64,8.64,0,0,1,8.6,8.6Z"/><path class="cls-2" d="M199.71,389h-8.64a2.33,2.33,0,0,0,0,4.66h8.64a2.33,2.33,0,0,0,0-4.66Z"/><path class="cls-2" d="M215.67,389H207a2.33,2.33,0,0,0,0,4.66h8.65a2.33,2.33,0,0,0,0-4.66Z"/><path class="cls-2" d="M199.71,382.4h-8.65a2.33,2.33,0,0,0,0,4.66h8.65a2.33,2.33,0,0,0,0-4.66Z"/><path class="cls-2" d="M215.67,382.4H207a2.33,2.33,0,0,0,0,4.66h8.65a2.33,2.33,0,0,0,0-4.66Z"/><path class="cls-2" d="M199.71,376h-8.65a2.33,2.33,0,0,0,0,4.65h8.65a2.33,2.33,0,1,0,0-4.65Z"/><path class="cls-2" d="M215.67,376H207a2.33,2.33,0,1,0,0,4.65h8.65a2.33,2.33,0,0,0,0-4.65Z"/><rect class="cls-5" x="312.61" y="340.15" width="20.96" height="20.96"/><path class="cls-2" d="M287.9,352.88h34.44v34.44H287.9Zm32.94,1.49H289.4v31.45h31.44Z"/><rect class="cls-5" y="26.2" width="20.96" height="20.96"/><path class="cls-2" d="M45.67,34.44H11.23V0H45.67Zm-32.94-1.5H44.17V1.5H12.73Z"/><polygon class="cls-6" points="436.94 548.59 427.77 548.59 423.4 513.19 436.95 513.19 436.94 548.59"/><path class="cls-7" d="M421.21,546h17.7v11.15H410.06A11.15,11.15,0,0,1,421.21,546Z"/><polygon class="cls-6" points="482.62 548.59 473.44 548.59 469.07 513.19 482.62 513.19 482.62 548.59"/><path class="cls-7" d="M466.88,546h17.7v11.15H455.73A11.15,11.15,0,0,1,466.88,546Z"/><path class="cls-6" d="M390.9,422A8,8,0,0,1,393,410.81a7.14,7.14,0,0,1,1.24-.69l31.2-86,15.35,8.38-35.62,82.18A8.09,8.09,0,0,1,390.9,422Z"/><path class="cls-6" d="M477.93,438.14a8,8,0,0,1-3-11,7.77,7.77,0,0,1,.81-1.16l-9.67-91,17.48.8,4,89.48a8.08,8.08,0,0,1-9.65,12.83Z"/><circle class="cls-6" cx="450.05" cy="289.8" r="18.39"/><path class="cls-8" d="M477.81,417.45H422.37l.07-.43c.1-.64,9.88-64.71,2.66-85.68a8.85,8.85,0,0,1,4.55-10.91h0c10.31-4.86,30.1-10.84,46.81,3.67a21.17,21.17,0,0,1,7.08,17.52Z"/><path class="cls-8" d="M433,361.77l-25-5.06L419.76,329a10.48,10.48,0,0,1,20.29,5.24Z"/><path class="cls-8" d="M465,371.18l-1.5-34.4c-1.13-6.47,2.57-12.58,8.26-13.58s11.25,3.49,12.4,10l5.64,32.13Z"/><path class="cls-7" d="M476,413.33c8.92,34,9.9,77.17,7.49,124.28l-12-1.49-21.71-89.84-12,91.33-13.47-.74c-4-49.44-7.95-91.88-1.5-119.79Z"/><path class="cls-7" d="M462.17,304c-3.43,3.65-9.8,1.69-10.25-3.3a6.53,6.53,0,0,1,0-1.17c.23-2.21,1.51-4.22,1.2-6.55a3.47,3.47,0,0,0-.63-1.61c-2.73-3.66-9.15,1.64-11.73-1.68-1.58-2,.28-5.23-.94-7.5-1.6-3-6.34-1.52-9.32-3.16-3.31-1.83-3.11-6.91-.93-10,2.66-3.77,7.32-5.78,11.92-6.07s9.17,1,13.47,2.63c4.88,1.91,9.72,4.54,12.73,8.83,3.65,5.22,4,12.24,2.17,18.34C468.76,296.5,465,301,462.17,304Z"/><path class="cls-2" d="M505.45,558H302.75c-.3,0-.53-.33-.53-.74s.23-.75.53-.75h202.7c.29,0,.53.33.53.75S505.74,558,505.45,558Z"/></g></g></svg>