<svg id="b46bdb45-05c7-43e7-afee-243a50499326" xmlns="http://www.w3.org/2000/svg" xmlns:xlink="http://www.w3.org/1999/xlink" viewBox="0 0 1130 852.62"><defs><style>.cls-1{fill:#6ea8fe;}.cls-1,.cls-14,.cls-2,.cls-4,.cls-8{opacity:0.1;}.cls-1,.cls-2,.cls-4,.cls-8{isolation:isolate;}.cls-2{fill:#6c63ff;}.cls-3{fill:#d0d2d5;}.cls-5,.cls-8{fill:#444053;}.cls-6{fill:#fff;}.cls-7{fill:#0d6efd;}.cls-9{fill:#8ab02c;}.cls-10{fill:#1b57b0;}.cls-11{fill:#454b69;}.cls-12{fill:url(#Sfumatura_senza_nome);}.cls-13{fill:#2f2e41;}.cls-15{fill:#ffb8b8;}.cls-16{fill:#3f3d56;}</style><linearGradient id="Sfumatura_senza_nome" x1="675.68" y1="-25.11" x2="675.68" y2="371.92" gradientTransform="matrix(1, 0, 0, -1, -35, 827.31)" gradientUnits="userSpaceOnUse"><stop offset="0" stop-color="gray" stop-opacity="0.25"/><stop offset="0.54" stop-color="gray" stop-opacity="0.12"/><stop offset="1" stop-color="gray" stop-opacity="0.1"/></linearGradient></defs><path class="cls-1" d="M656.54,163.66c-72.44-2.57-141.44-26.53-207.32-52.74S318.07,55.66,247.37,41.77c-45.48-8.93-97.49-10.19-134.13,14.78-35.27,24-46.66,65.54-52.78,104-4.61,29-7.32,59.45,5.3,86.57C74.53,266,90.1,281.77,100.87,299.8c37.45,62.75,11,140.13-29.62,201.4-19,28.74-41.13,56.16-55.82,86.75S-6.06,653.6,6.79,684.81c12.75,30.94,43.11,54.17,76,70.51C149.6,788.52,228.33,798,305.1,803.4,475,815.31,645.89,810.15,816.28,805c63.06-1.92,126.39-3.85,188.43-13.84,34.44-5.55,70-14.35,95-35.61,31.75-27,39.62-72.67,18.34-106.5-35.65-56.73-134.32-70.81-159.26-131.73-13.73-33.52.37-70.86,20.32-102,42.8-66.69,114.54-125.2,118.32-201.44,2.6-52.36-31.89-104.8-85.21-129.57-55.9-26-133.4-22.7-174.64,20.28C795.12,148.91,720.5,165.94,656.54,163.66Z"/><ellipse class="cls-2" cx="678.83" cy="838.73" rx="92.55" ry="13.88"/><polygon class="cls-3" points="644.47 813.69 466.28 811.41 466.81 806.84 475.42 731.45 631.91 731.45 643.42 806.84 644.3 812.55 644.47 813.69"/><polygon class="cls-4" points="644.3 812.55 555.38 812.55 466.28 811.41 466.81 806.84 643.42 806.84 644.3 812.55"/><rect class="cls-3" x="436.58" y="807.98" width="236.45" height="5.71"/><path class="cls-5" d="M898.62,278.65a14.87,14.87,0,0,0-14.79-14.95H223.5a14.88,14.88,0,0,0-14.8,14.95V678.91H898.62Z"/><path class="cls-3" d="M208.7,674.91v46.88a14.8,14.8,0,0,0,14.8,14.8H883.82a14.79,14.79,0,0,0,14.8-14.78v-46.9Z"/><rect class="cls-6" x="237.26" y="288.83" width="636.23" height="359.81"/><path class="cls-7" d="M557.09,718.81a15.44,15.44,0,0,0,12.13-5.89h0a15.28,15.28,0,0,0,1.2-1.77l-8.42-1.4,9.15.07a15.45,15.45,0,0,0,.29-12.22L559.17,704l11.32-8.32A15.42,15.42,0,1,0,544,711.37a14.33,14.33,0,0,0,1,1.54h0A15.43,15.43,0,0,0,557.09,718.81Z"/><polygon class="cls-4" points="572.51 736.59 643.6 807.98 632.69 736.59 572.51 736.59"/><rect class="cls-8" x="236.76" y="288.87" width="636.92" height="21.02"/><rect class="cls-7" x="240.41" y="292.53" width="18.28" height="12.79" rx="0.78"/><rect class="cls-6" x="457.9" y="292.53" width="191.9" height="12.79" rx="0.58"/><path class="cls-5" d="M644.1,300.24h-.47l-.17-.14a4,4,0,0,0,.91-2.49,3.79,3.79,0,1,0-3.77,3.81,3.94,3.94,0,0,0,2.48-.91l.17.14v.47l2.93,2.93.87-.88Zm-3.5,0a2.64,2.64,0,1,1,2.63-2.65v0a2.61,2.61,0,0,1-2.59,2.63Z"/><circle class="cls-9" cx="864.54" cy="298.92" r="6.4"/><path class="cls-4" d="M701.09,390.05H409.48c-10.1,0-18.29,7.64-18.29,17.06V567.63c0,9.42,8.19,17.06,18.29,17.06H701.09c10.1,0,18.29-7.64,18.29-17.06V407.11C719.38,397.69,711.19,390.05,701.09,390.05Z"/><rect class="cls-10" x="402.34" y="380.91" width="306.08" height="194.64" rx="18.67"/><rect class="cls-6" x="434.49" y="492.39" width="48.66" height="16.51" rx="4.8"/><rect class="cls-6" x="499.66" y="492.39" width="48.66" height="16.51" rx="4.8"/><rect class="cls-6" x="526.59" y="526.28" width="42.58" height="12.16" rx="4.8"/><rect class="cls-6" x="564.83" y="492.39" width="48.66" height="16.51" rx="4.8"/><rect class="cls-6" x="630" y="492.39" width="48.66" height="16.51" rx="4.8"/><rect class="cls-7" x="438.83" y="451.29" width="33.02" height="33.02" rx="2.95"/><path class="cls-11" d="M460.77,473.23H450.35V462.81h10.42Zm-10-.43h9.56v-9.56h-9.56Z"/><rect class="cls-11" x="455.34" y="451.29" width="0.43" height="11.73"/><rect class="cls-11" x="455.34" y="473.01" width="0.43" height="11.3"/><rect class="cls-11" x="438.83" y="467.58" width="11.73" height="0.43"/><rect class="cls-11" x="460.56" y="467.58" width="11.3" height="0.43"/><polygon class="cls-11" points="450.41 463.18 447 459.79 438.83 459.79 438.83 459.35 447.18 459.35 450.72 462.87 450.41 463.18"/><polygon class="cls-11" points="460.7 463.18 460.41 462.86 464.38 459.35 471.85 459.35 471.85 459.79 464.55 459.79 460.7 463.18"/><polygon class="cls-11" points="447.19 477.24 438.83 477.24 438.83 476.8 446.99 476.8 450.4 472.87 450.73 473.16 447.19 477.24"/><polygon class="cls-11" points="471.85 477.24 464.37 477.24 460.4 473.17 460.71 472.86 464.56 476.8 471.85 476.8 471.85 477.24"/><rect class="cls-7" x="434.27" y="395.9" width="92.54" height="16.51" rx="4.1"/><path class="cls-12" d="M723.79,653c-.06-1.72-.27-3.44-.48-5.15-.77-6.42-1.56-12.84-2.81-19.17a20.66,20.66,0,0,0-1-3.62c-.45-1.11-1.07-2.13-1.54-3.23v-.12c.58-.28,1.15-.56,1.71-.86a9.24,9.24,0,0,0,1.16-.71,3.34,3.34,0,0,0,.91-1c1-1.76-.12-4-.63-6h0c-.54-2.15-.42-4.73-2-6.17-5.64-5-2.84-15.2-5.66-22.36-.5-1.25-1.07-2.48-1.5-3.76-.33-1-.56-2-.8-3q-3-12.5-6.32-24.89c-2.33-8.56-2.08-17.48-5-25.84a27.61,27.61,0,0,0-2.15-5,13.4,13.4,0,0,0-3.88-4.19c-4.26-2.94-8.55-5.45-13.55-6.52s-10.4-.9-15.5-.88a16.5,16.5,0,0,0-7.24-5.65l-.09-.26a17.91,17.91,0,0,1-.94-3.13,21.45,21.45,0,0,1-.25-3.2c0-1.15-.05-2.31-.08-3.46l.28-.27a20,20,0,0,0,1.84-2.26,15.41,15.41,0,0,0,1.4-2.39,22.2,22.2,0,0,0,1.14-2.93,33,33,0,0,0,1.23-6.21c.27-2.47.35-5,.42-7.47v-3.19a13.49,13.49,0,0,0-1.86-7.28c-1.81-2.7-4.91-4-7.9-5.08-6-2.08-12.59-3.45-18.52-1.22-4.71,1.78-8.47,5.66-13.12,7.63h0a5.77,5.77,0,0,1,.29.55v.08c.08.18.15.35.21.53h0a6.57,6.57,0,0,1,.33,1.25h0a7.14,7.14,0,0,1,0,2.44,8.29,8.29,0,0,1-4.48.66,14.36,14.36,0,0,0,2.82,5.12c.41.52.84,1,1.25,1.55l.63.78a16.19,16.19,0,0,1,2.59,4.19,8.05,8.05,0,0,1,.49,1.87c.19,1.27.14,2.73.31,4a5.82,5.82,0,0,0,.41,1.59,16.74,16.74,0,0,0,8.88,12.47,36.8,36.8,0,0,1,0,11.94,3.08,3.08,0,0,1-.13.66c-2.72,3.43-5.33,7-8.68,9.73a31.85,31.85,0,0,1-4.87,3.14A13.44,13.44,0,0,1,617.9,528c-1.26.29-2.58.25-3.83.56a10,10,0,0,0-5.69,4.63,31.75,31.75,0,0,1-2.1,3.38c-.7.87-1.58,1.58-2.32,2.41-2.68,3-3.41,7.34-4,11.4a52.35,52.35,0,0,1-6.83,6.31,10.07,10.07,0,0,1-2.54,1.47c-2.36.79-5-.22-7-1.74s-3.65-3.52-5.63-5.08l-.52.77a3.63,3.63,0,0,1-.41-.47,10.1,10.1,0,0,1-1.65-3.82c-.72-3.69.64-7.64-.42-11.23-.39-1.3-1.33-2.64-2.63-2.61s-2.11,1.33-3.23,1.94c-1.8,1-4,.09-5.78-.9s-3.81-2.1-5.76-1.51a4.08,4.08,0,0,0,1.49,3.4,9,9,0,0,1,2.42,2.93,13.42,13.42,0,0,1,.33,3.79c.2,2.92,2,5.43,3.74,7.71q3.24,4.15,6.78,8.06h0a2.49,2.49,0,0,1-1.26,1.09,2.74,2.74,0,0,0,0,1.45,6.07,6.07,0,0,0,.38.95c.23.47.51.93.75,1.36l3.51,6.17.57,1c.24.42.48.82.73,1.23a22.58,22.58,0,0,0,2.93,4,11.55,11.55,0,0,0,1.84,1.58,9,9,0,0,0,1.37.82,8,8,0,0,0,2.12.73,6.75,6.75,0,0,0,1.1.14,7.36,7.36,0,0,0,1.15,0,15.19,15.19,0,0,0,3.37-.87c6.69-2.35,12.83-6.1,19.19-9.29a10.63,10.63,0,0,1,2.79-1.08,4.77,4.77,0,0,1,1-.08,3.74,3.74,0,0,1,1,.17,3.79,3.79,0,0,1,.9.45,2.61,2.61,0,0,1,1.09,1.62c.19,1,.37,1.93.55,2.89s.38,1.92.58,2.88c.4,1.91.83,3.82,1.33,5.71.27,1,.53,2.06.79,3.1.64,2.54,1.27,5.1,1.85,7.66.18.8.35,1.61.51,2.41a36.71,36.71,0,0,1,.64,4.31v.1c.1,1.26.11,2.51.12,3.77v3.95l.1,11.66c0,1.68-.9,2.73-1.61,4.24-.14.31-.27.63-.38,1h0c-.13.41-.24.82-.33,1.24a2.83,2.83,0,0,1-.08.4,1.94,1.94,0,0,1-.06.46c-.06.15,0,.3-.05.44a1.3,1.3,0,0,0,0,.44v1.78c0,.12.07.39.1.59l.06.3c.07.29.14.58.24.87.2.6.45,1.19.71,1.77s.52,1.17.74,1.77a12,12,0,0,1,.36,1.16l.06.27c.08.31.15.62.21.94v.22c.06.34.11.69.15,1v.12c0,.39.08.78.1,1.17h0a38.55,38.55,0,0,1,0,4.3l-.12,7.12v.22h0a1.3,1.3,0,0,0,.14.64.79.79,0,0,0,.67.36,2.6,2.6,0,0,0,1.39-.54l3.18-2.31h.2c-2.51,4.11-4.52,8.64-4.91,13.47a42.84,42.84,0,0,0,.61,9.53c2.93,21,9.83,42.19,8.38,63.39-.57,8.35,2.89,16.49,2.87,24.85,0,3.25-.55,6.47-.69,9.71-.61,13.92,6.49,28,3.6,41.6,1,3.38,4.79,5.18,5.86,8.54.9,2.85-.4,5.88-1.45,8.67a17.45,17.45,0,0,0-.87,3c-2.91,0-6.14.06-8.08.87a12.6,12.6,0,0,0-1.57.64c-1.79,1.07-1.91,4-.78,5.77s7.48,7.42,9.34,8.35l4.07,2a24.59,24.59,0,0,0,7,2.64,23.91,23.91,0,0,0,6.21-.12c1.59-.17,3.35-.43,4.38-1.73,1.45-1.84.71-4.83-.28-7.49a2.59,2.59,0,0,0,.82-1.11,8.52,8.52,0,0,0,.27-2.13,15.76,15.76,0,0,1,1.42-4c1.67-4.07,1.6-8.65,1.5-13.08a152,152,0,0,0-1.48-21.53c-.5-3-1.18-6-1.76-9a149.09,149.09,0,0,1-2.73-33,26.32,26.32,0,0,0-1.11-7.94,14.09,14.09,0,0,1-.26-4.53l1.2-18.31a73.47,73.47,0,0,0,.17-11.2c-.17-2-.5-4-.7-6a91.3,91.3,0,0,1-.19-11.46c.11-4.11.3-8.52,2.65-11.82a1.84,1.84,0,0,1,1.12-.87c.48-.07.62.58.44,1,.25.76.51,1.51.77,2.27.08.22.15.43.23.64.13.39.27.78.41,1.17s.2.54.29.81l.39,1c.11.3.23.59.34.88s.25.63.38.94.26.62.4.93.24.57.37.86l.48,1c.12.25.24.51.37.76l.59,1.09c.11.21.22.42.34.62.32.56.65,1.1,1,1.64h0c.68,1,1.41,2,2,3.07a9.35,9.35,0,0,1,.56,1.09,27.59,27.59,0,0,1,1.31,4.26c.35,1.32.76,2.61,1.21,3.88s1,2.54,1.49,3.78c.27.62.55,1.24.83,1.85.84,1.85,1.75,3.67,2.67,5.47a5,5,0,0,1,.38,1,4.64,4.64,0,0,1,.11.51,6.34,6.34,0,0,1-.08,1.62,4.67,4.67,0,0,1-.27.9c-1.23,2.81-.24,5.58.3,8.34a52.91,52.91,0,0,1,.68,8.8c0,1,0,2,.09,2.93,0,1.22,0,2.43.07,3.65s0,2.62.07,3.93a34.44,34.44,0,0,1-.16,3.93,8.9,8.9,0,0,1-.19,1.36c-.22,1.35-.53,2.69-.8,4a79.47,79.47,0,0,0-1.38,16q0,3.23.21,6.47c.12,2.17.29,4.33.48,6.5.1,1.19.22,2.38.34,3.57.2,2.06.42,4.12.64,6.18s.46,4.33.67,6.48.4,4.3.55,6.44a5.42,5.42,0,0,1-.64,3.06,7,7,0,0,0-.5,1.16,6.24,6.24,0,0,0-.22.85,8.27,8.27,0,0,0-.12,1,12.27,12.27,0,0,0,.12,2.1c0,.35.11.68.18,1,.15.69.33,1.38.51,2.06a20.9,20.9,0,0,0,2,5.4,8.23,8.23,0,0,0,.66,1c.07.1.15.19.23.29a6,6,0,0,1,.57.76,2.42,2.42,0,0,1,.21.39,3,3,0,0,1,.12,1.73c-.11.6-.32,1.2-.48,1.77h0l.52.07c-.73,2.31-1.07,4.68.16,6.23,1,1.3,2.79,1.56,4.38,1.73a23.48,23.48,0,0,0,6.21.13,24.59,24.59,0,0,0,7-2.64l4.07-2c1.86-.93,8.2-6.54,9.33-8.36s1-4.69-.77-5.76a11.29,11.29,0,0,0-1.57-.65c-1.8-.75-4.71-.82-7.43-.86-.14-1-.22-2.09-.26-3.12a86.25,86.25,0,0,1,.22-11.48c.23-2.71.58-5.41.55-8.12,0-3.62-.75-7.2-1.14-10.8s-.43-7.12-.49-10.68c-.09-5.24,1.45-10.23,2.12-15.41l1.17-9.11A11.08,11.08,0,0,0,709,757c-.18-1-.64-2-.83-3-.41-2.27.62-4.52.94-6.81.37-2.63-.2-5.3-.57-7.94a101.36,101.36,0,0,1-.69-12.56c-.36-25.8-1.09-52.18-9.81-76.32-.35-1-.73-2-1.12-2.93a4.51,4.51,0,0,0,.52-.17,3.75,3.75,0,0,0,.77-.4,1.66,1.66,0,0,0,.3-.22,2.32,2.32,0,0,0,.59-1,3.66,3.66,0,0,0,.18-1.13,7.92,7.92,0,0,0-.29-2l-.12-.41c-.2-.68-.42-1.35-.65-2h0c-.22-.65-.46-1.28-.71-1.92a23.73,23.73,0,0,1-1.26-3.67c-.61-2.84,0-6.12-1.71-8.43-3.78-5.18-1.11-13.14-2.69-19.45-.52-2-1.28-4-1.76-6-.3-1.28-.49-2.59-.68-3.9a48.34,48.34,0,0,1-.74-8.58,36.71,36.71,0,0,1,.39-4.31l1.2-9.92a29.63,29.63,0,0,1,2.84,8.16c.09.41.17.81.26,1.22a145,145,0,0,0,4,14.48c.91,2.87,1.81,5.73,2.79,8.57.29.81.57,1.63.83,2.46a18.24,18.24,0,0,1,.6,2.53c.11.68.16,1.38.21,2.07s.09,1.4.16,2.09a19.78,19.78,0,0,0,2.9,8.31,1.43,1.43,0,0,1,.14.2,2.35,2.35,0,0,0,1.22,1.06h0a2.86,2.86,0,0,0,1.09,0h.06c.53-.11,1.06-.23,1.58-.36l.23-.06c.24,3.1,1.16,6.19,1.24,9.32.1,4.55-1.57,8.91-2.63,13.32A85.3,85.3,0,0,0,706,659.48a5.31,5.31,0,0,0,.15,2.44,1.73,1.73,0,0,0,1.82,1.23,2.22,2.22,0,0,0,1.29-1.15,9.11,9.11,0,0,0,1.11-6.59c.95.2,1.44,1.29,1.67,2.28a13.7,13.7,0,0,1-.42,7.74c-.59,1.66-1.5,3.19-2,4.9a2.56,2.56,0,0,0,0,1.64c.5,1.15,2.08,1.07,3.22.65a16.18,16.18,0,0,0,8.49-8A24.46,24.46,0,0,0,723.79,653Z"/><path class="cls-13" d="M665.45,850.51c-1.07,1.29-2.9,1.55-4.56,1.72a19.59,19.59,0,0,1-13.74-2.5l-4.24-2c-1.93-.93-8.53-6.51-9.71-8.32s-1.06-4.66.8-5.73a13.59,13.59,0,0,1,1.64-.64c3.12-1.24,9.44-.61,12.76-1.09a8.83,8.83,0,0,1,4.72,1.11c3.28,1.45,9.06,2.6,10.49,6.29C664.72,842.19,667.76,847.7,665.45,850.51Z"/><path class="cls-13" d="M689,847.77c1.07,1.29,2.9,1.55,4.56,1.72A19.54,19.54,0,0,0,707.29,847l4.24-2c1.94-.93,8.54-6.51,9.72-8.32s1.06-4.67-.81-5.73a10.81,10.81,0,0,0-1.63-.64c-3.12-1.24-9.44-.61-12.76-1.09a8.78,8.78,0,0,0-4.73,1.11c-3.27,1.45-9,2.6-10.48,6.29C689.7,839.45,686.65,845,689,847.77Z"/><path class="cls-13" d="M699.31,645.57a52.12,52.12,0,0,1,2.67,6.08c9.08,24,9.84,50.26,10.22,75.93a96.56,96.56,0,0,0,.71,12.49c.38,2.63,1,5.28.59,7.91-.33,2.27-1.4,4.51-1,6.76.19,1,.67,2,.86,3a10.34,10.34,0,0,1-.09,3.33l-1.21,9.06c-.7,5.16-2.3,10.12-2.21,15.33.06,3.55.12,7.1.51,10.63a104.65,104.65,0,0,1,1.19,10.74c0,2.7-.34,5.39-.58,8.08a83.72,83.72,0,0,0-.23,11.42c.14,2.93.48,6,2,8.47-1.75,2.5-3.47,4.74-6.26,6-5.67,2.48-12.18,1.64-18.31.75.34-1.13.86-2.41.37-3.49a6.67,6.67,0,0,0-1-1.43,17.07,17.07,0,0,1-2.73-6.34c-.74-2.71-1.48-5.62,0-8.21a5.25,5.25,0,0,0,.67-3c-1.27-17-5.06-34.64-1.57-51.35a54.55,54.55,0,0,0,1-5.37,65.8,65.8,0,0,0,.1-7.82l0-3.73c-.18-3.87,0-7.84-.8-11.67-.55-2.74-1.59-5.5-.31-8.3a4.54,4.54,0,0,0-.19-4,74.37,74.37,0,0,1-6.46-14.91,26.17,26.17,0,0,0-1.36-4.24,30.4,30.4,0,0,0-2.68-4.13c-3-4.41-4.86-9.52-6.64-14.56.19-.47,0-1.11-.45-1a1.87,1.87,0,0,0-1.17.87c-2.44,3.28-2.65,7.66-2.76,11.76a86.74,86.74,0,0,0,.2,11.4c.2,2,.55,4,.73,6a71.44,71.44,0,0,1-.18,11.14l-1.23,18.14a12.91,12.91,0,0,0,.26,4.51,25.44,25.44,0,0,1,1.16,7.89A142.05,142.05,0,0,0,666,792.49c.6,3,1.31,5.94,1.83,8.93a146.18,146.18,0,0,1,1.54,21.42c.11,4.41.18,9-1.56,13a15,15,0,0,0-1.48,4,8.39,8.39,0,0,1-.28,2.12c-.51,1.31-2,1.87-3.41,2.17a27.72,27.72,0,0,1-7.87.56,4.41,4.41,0,0,1-1.79-.4c-1-.51-1.5-1.59-2.25-2.4-1.61-1.76-4.29-2.3-5.76-4.18-1.84-2.36-1.07-5.77,0-8.55s2.44-5.79,1.5-8.63c-1.11-3.33-5-5.13-6.1-8.49,3-13.54-4.38-27.54-3.75-41.39.15-3.23.71-6.43.72-9.66,0-8.32-3.57-16.42-3-24.72,1.51-21.09-5.68-42.15-8.72-63.08a40.63,40.63,0,0,1-.64-9.47c.45-5.24,2.88-10.11,5.8-14.48,2.1-3.13,4.62-6.2,8.09-7.66,2.86-1.21,6.06-1.2,9.16-1.18,7.74.06,15.48.12,23.22.26a75.87,75.87,0,0,1,15.7,1.4C691.14,643,695.06,645,699.31,645.57Z"/><g class="cls-14"><path d="M667.38,688.81a1.91,1.91,0,0,1,1.17-.87c.5-.07.65.57.46,1,1.78,5,3.6,10.15,6.63,14.56a29.54,29.54,0,0,1,2.69,4.13,27.19,27.19,0,0,1,1.36,4.24,74.33,74.33,0,0,0,6.45,14.91,4.54,4.54,0,0,1,.19,4c-1.28,2.8-.24,5.56.32,8.3.77,3.83.62,7.8.8,11.67,0,1.21,0,2.42.07,3.63a63.75,63.75,0,0,1-.09,7.82c-.21,1.81-.65,3.59-1,5.37-3.48,16.71.3,34.32,1.57,51.35a5.16,5.16,0,0,1-.66,3c-1.52,2.59-.78,5.5,0,8.21a16.75,16.75,0,0,0,2.73,6.34,7.49,7.49,0,0,1,1,1.43c.49,1.08,0,2.36-.38,3.49a74.87,74.87,0,0,0,8.18.87,58.89,58.89,0,0,1-10.61-.87c.34-1.13.86-2.41.37-3.49a6.67,6.67,0,0,0-1-1.43,17.07,17.07,0,0,1-2.73-6.34c-.74-2.71-1.48-5.62,0-8.21a5.25,5.25,0,0,0,.67-3c-1.27-17-5.06-34.64-1.57-51.35a54.55,54.55,0,0,0,1-5.37,65.8,65.8,0,0,0,.1-7.82c0-1.21,0-2.42-.08-3.63-.18-3.87,0-7.84-.8-11.67-.55-2.74-1.59-5.5-.31-8.3a4.54,4.54,0,0,0-.19-4,74.37,74.37,0,0,1-6.46-14.91,27.19,27.19,0,0,0-1.36-4.24,30.4,30.4,0,0,0-2.68-4.13c-2.9-4.21-4.69-9-6.39-13.87C667,689.38,667.18,689.09,667.38,688.81Z"/></g><path class="cls-15" d="M574.26,549.42c-.75-3.67.67-7.6-.44-11.17-.4-1.29-1.38-2.63-2.73-2.6s-2.2,1.32-3.36,1.93c-1.87,1-4.15.09-6-.89s-4-2.1-6-1.51c-.24,1.28.62,2.49,1.56,3.38a9.27,9.27,0,0,1,2.51,2.92c.47,1.18.25,2.5.35,3.77.21,2.9,2,5.41,3.89,7.67a137.21,137.21,0,0,0,9.43,10.45s5-6.24,4.93-7.33-1.78-2-2.4-2.82A9.55,9.55,0,0,1,574.26,549.42Z"/><path class="cls-15" d="M724.32,626.22a19.62,19.62,0,0,1,1,3.6c1.3,6.3,2.12,12.69,2.93,19.07.21,1.7.43,3.41.49,5.12a23.37,23.37,0,0,1-2.43,11.79,16.47,16.47,0,0,1-8.83,8c-1.18.42-2.83.5-3.35-.64a2.4,2.4,0,0,1,0-1.63c.47-1.7,1.42-3.23,2-4.88a13.15,13.15,0,0,0,.44-7.7c-.24-1-.75-2.07-1.74-2.27a8.75,8.75,0,0,1-1.16,6.56,2.29,2.29,0,0,1-1.34,1.14,1.81,1.81,0,0,1-1.9-1.22,5.26,5.26,0,0,1-.15-2.43,81.92,81.92,0,0,1,1.86-12.16c1.1-4.39,2.85-8.72,2.73-13.25-.1-4.1-1.73-8.13-1.27-12.2a1,1,0,0,1,.74-1,27.54,27.54,0,0,1,3.53-1.17c.71-.18,3.13-1,3.81-.64s.72,2.13,1,2.75C723.21,624.09,723.86,625.11,724.32,626.22Z"/><circle class="cls-15" cx="643.39" cy="487.97" r="16.75"/><path class="cls-15" d="M658.4,500.09a18.89,18.89,0,0,0,.25,3.19,16.83,16.83,0,0,0,1,3.11A18,18,0,0,0,662,511a6.87,6.87,0,0,0,4.24,2.76A120.58,120.58,0,0,1,630,524.22a15.21,15.21,0,0,0,4.8-5.13,14.49,14.49,0,0,0,1.27-4.17,35.06,35.06,0,0,0-1.57-18.07c-.21-.56-.41-1.26,0-1.73a1.65,1.65,0,0,1,.6-.38,37.27,37.27,0,0,1,15.74-2.94c1.38,0,2.76.07,4.14.17.74.06,2.37-.1,3,.44s.35,2.66.37,3.53Z"/><path class="cls-16" d="M667.26,512.31A18,18,0,0,0,645.82,507c-8,3.81-11.9,13-18.91,18.32a34,34,0,0,1-5.08,3.13,14.35,14.35,0,0,1-3.34,1.32c-1.31.29-2.67.25-4,.56a10.26,10.26,0,0,0-5.93,4.6,29.7,29.7,0,0,1-2.18,3.36c-.73.87-1.64,1.58-2.41,2.41-2.79,3-3.55,7.3-4.18,11.34a53.71,53.71,0,0,1-7.12,6.27,9.88,9.88,0,0,1-2.64,1.46c-2.45.8-5.16-.21-7.25-1.72s-3.79-3.5-5.85-5c-1.89,2.7-3.87,5.42-5.89,8a2.56,2.56,0,0,1-1.32,1.08c-.38,1.28.53,2.6,1.21,3.74l3.65,6.14a30.9,30.9,0,0,0,4.41,6.18,10.38,10.38,0,0,0,6.71,3.15,13.1,13.1,0,0,0,4.71-.91c7-2.34,13.35-6.07,20-9.25a8.87,8.87,0,0,1,3.92-1.15,3.17,3.17,0,0,1,3.1,2.23c.76,3.84,1.51,7.66,2.55,11.42q1.49,5.34,2.75,10.71a47.36,47.36,0,0,1,1.2,6.69c.11,1.28.12,2.56.14,3.85l.14,15.52c0,1.68-.94,2.72-1.68,4.22a10,10,0,0,0-.47,7.46c.41,1.21,1.06,2.33,1.52,3.53,1.1,2.89,1.06,6.07,1,9.16l-.13,7.08a1.43,1.43,0,0,0,.15.86c.43.67,1.47.28,2.13-.18l3.27-2.24a75.77,75.77,0,0,0,13.38.65c12.71-.18,25.43.32,38.11,1.21,4.24.3,8.61.62,12.61-.79,2-.72,3.9-1.87,6-2.44a5.43,5.43,0,0,0,2.37-1c1.16-1.07.85-3,.38-4.46s-.89-2.63-1.42-3.91a23.74,23.74,0,0,1-1.32-3.65c-.63-2.82,0-6.09-1.77-8.39-3.94-5.15-1.15-13.08-2.81-19.35-.53-2-1.32-4-1.82-6-.32-1.28-.52-2.58-.71-3.88a45.37,45.37,0,0,1-.77-8.54,34.24,34.24,0,0,1,.41-4.28l1.25-9.88a31.28,31.28,0,0,1,3.22,9.34,138.15,138.15,0,0,0,4.2,14.41c.94,2.85,1.88,5.69,2.9,8.52a28.17,28.17,0,0,1,1.49,5c.22,1.37.23,2.77.39,4.14a18.92,18.92,0,0,0,3,8.27,2.73,2.73,0,0,0,1.42,1.26,2.84,2.84,0,0,0,1.23,0,48.7,48.7,0,0,0,12.72-4.4,5.22,5.22,0,0,0,2.15-1.68c1.08-1.76-.13-4-.66-6s-.43-4.71-2.11-6.14c-5.87-5-3-15.13-5.89-22.25-.52-1.25-1.12-2.46-1.56-3.74-.34-1-.59-2-.84-3q-3.07-12.43-6.58-24.77c-2.42-8.52-2.16-17.39-5.21-25.71a27,27,0,0,0-2.23-5,13.6,13.6,0,0,0-4-4.17c-4.43-2.93-8.89-5.42-14.1-6.48S672.56,512.25,667.26,512.31Z"/><path class="cls-16" d="M628.17,492.07c-2.25-1.21-1.66-4.51-2-7-.79-5.21-6.66-8.29-8-13.37a9,9,0,0,0,4.66-.66,7.13,7.13,0,0,0-.94-4.88c4.83-2,8.75-5.81,13.65-7.58,6.18-2.23,13-.86,19.28,1.21,3.11,1,6.34,2.37,8.22,5,2.06,3,2,6.82,1.92,10.42-.17,5.64-.4,11.48-2.91,16.53-3.19,6.43-12.24,12.38-19.72,10.64-3.1-.72-4-2.68-5.33-5.38-.82-1.68-1.12-3.63-3-4.51S630,493.05,628.17,492.07Z"/><g class="cls-14"><path d="M624.53,646v.09c.43.67,1.47.28,2.13-.18L630,643.6a75.76,75.76,0,0,0,13.38.64c12.71-.18,25.43.32,38.11,1.21,4.24.3,8.61.62,12.61-.79,2-.72,3.9-1.86,6-2.44a6.66,6.66,0,0,0,2.07-.74c.24.66.47,1.32.68,2,.47,1.51.78,3.39-.38,4.46a5.43,5.43,0,0,1-2.37,1c-2.08.57-4,1.72-6,2.44-4,1.41-8.37,1.09-12.61.79-12.68-.89-25.4-1.39-38.11-1.21a75.59,75.59,0,0,1-13.36-.65l-3.32,2.3c-.66.46-1.7.85-2.13.18a1.43,1.43,0,0,1-.15-.86Q624.48,649,624.53,646Z"/><path d="M697.11,584.92a31.28,31.28,0,0,0-3.22-9.34l-1.25,9.88c-.08.62-.16,1.24-.23,1.86a30.59,30.59,0,0,1-.18-4.28,34.24,34.24,0,0,1,.41-4.28l1.25-9.88a31.28,31.28,0,0,1,3.22,9.34,138.15,138.15,0,0,0,4.2,14.41c.94,2.85,1.88,5.7,2.9,8.52a28.17,28.17,0,0,1,1.49,5c.22,1.37.23,2.77.39,4.14a18.75,18.75,0,0,0,3,8.27,2.64,2.64,0,0,0,1.41,1.26,2.84,2.84,0,0,0,1.23-.05,48.7,48.7,0,0,0,12.72-4.4,8,8,0,0,0,1.49-1h0c.53,2,1.74,4.19.66,6a5.22,5.22,0,0,1-2.15,1.68,48.7,48.7,0,0,1-12.72,4.4,2.84,2.84,0,0,1-1.23,0,2.64,2.64,0,0,1-1.41-1.26,18.75,18.75,0,0,1-3-8.27c-.16-1.37-.17-2.77-.39-4.14a28.17,28.17,0,0,0-1.49-5c-1-2.83-2-5.67-2.9-8.52A137.62,137.62,0,0,1,697.11,584.92Z"/><path d="M696.08,612.15v1.34C696.1,613,696.09,612.6,696.08,612.15Z"/><path d="M623.55,629c1.1,2.89,1.06,6.07,1,9.16v2.42a16.32,16.32,0,0,0-1-4.88c-.46-1.2-1.11-2.32-1.52-3.53a10,10,0,0,1,.08-6.51C622.52,626.77,623.11,627.84,623.55,629Z"/><path d="M571.06,561l.57-.74,3,5A30.9,30.9,0,0,0,579,571.4a10.38,10.38,0,0,0,6.69,3.25,13.54,13.54,0,0,0,4.71-.9c7-2.35,13.35-6.08,20-9.26a8.92,8.92,0,0,1,3.86-1.18,3.18,3.18,0,0,1,3.1,2.24c.76,3.83,1.51,7.65,2.55,11.41q1.49,5.34,2.75,10.71a47.36,47.36,0,0,1,1.2,6.69c.11,1.28.12,2.57.13,3.85l.15,15.53a3.82,3.82,0,0,1-.06.68l-.09-9.51a38,38,0,0,0-.13-3.85,47.36,47.36,0,0,0-1.2-6.69Q621.42,589,620,583.66c-1-3.76-1.79-7.58-2.55-11.42a3.17,3.17,0,0,0-3.1-2.23,8.87,8.87,0,0,0-3.92,1.15c-6.62,3.18-13,6.91-20,9.25a13.1,13.1,0,0,1-4.71.91,10.38,10.38,0,0,1-6.69-3.25,30.9,30.9,0,0,1-4.41-6.18c-1.21-2-2.43-4.09-3.65-6.14-.68-1.14-1.59-2.46-1.21-3.74A2.48,2.48,0,0,0,571.06,561Z"/></g><g class="cls-14"><path d="M622.75,468.58h0a6.93,6.93,0,0,0-.92-2.45l.84-.36A7,7,0,0,1,622.75,468.58Z"/><path d="M626.13,482.6c.38,2.53-.21,5.82,2,7,1.82,1,4-.41,5.79.45s2.14,2.83,3,4.51c1.31,2.7,2.23,4.65,5.33,5.38,7.48,1.74,16.53-4.22,19.72-10.65,2.51-5.05,2.74-10.89,2.91-16.53v2.44c-.17,5.64-.4,11.48-2.91,16.53-3.19,6.43-12.24,12.38-19.72,10.64-3.1-.72-4-2.68-5.33-5.38-.82-1.68-1.12-3.63-3-4.51s-4,.54-5.79-.44c-2.25-1.21-1.66-4.51-2-7-.79-5.21-6.66-8.29-8-13.37a8,8,0,0,0,1.09.07C621.37,475.45,625.48,478.31,626.13,482.6Z"/></g><path class="cls-9" d="M235.44,771.24a30.52,30.52,0,0,0-8.79-3.11,41.18,41.18,0,0,0,6.58-1.48c5.71-1.81,8.59-4.23,6.43-5.42s-8.55-.69-14.26,1.12a22.4,22.4,0,0,0-5.48,2.43c-.59-1.25-2.19-2.7-4.7-4.08-5.07-2.79-11.89-4.19-15.23-3.14s-1.93,4.17,3.15,7a30.78,30.78,0,0,0,7.88,2.93,45,45,0,0,0-5.42,1c-6.21,1.49-9.81,3.75-8,5s8.27,1.13,14.49-.36a27.52,27.52,0,0,0,6.52-2.31c.51,1.29,2.14,2.83,4.78,4.28,5.07,2.78,11.89,4.19,15.23,3.14S240.51,774,235.44,771.24Z"/><path class="cls-9" d="M160.94,675.12a19,19,0,0,0-5.52-1.94,24.53,24.53,0,0,0,4.14-.93c3.57-1.13,5.38-2.65,4-3.39s-5.34-.43-8.92.7a14,14,0,0,0-3.42,1.52,6.89,6.89,0,0,0-3-2.55c-3.17-1.75-7.44-2.63-9.53-2s-1.2,2.61,2,4.36a19.36,19.36,0,0,0,5,1.83,32.41,32.41,0,0,0-3.41.6c-3.89.93-6.14,2.35-5,3.15s5.17.71,9.06-.22a17.22,17.22,0,0,0,4.08-1.44,6.49,6.49,0,0,0,3,2.67c3.18,1.75,7.45,2.63,9.54,2S164.12,676.87,160.94,675.12Z"/><ellipse class="cls-2" cx="771.47" cy="817.2" rx="32.29" ry="6.21"/><ellipse class="cls-16" cx="770.93" cy="813.56" rx="3.76" ry="4.92"/><ellipse class="cls-16" cx="770.93" cy="807.55" rx="3.76" ry="4.92"/><ellipse class="cls-16" cx="770.93" cy="801.53" rx="3.76" ry="4.92"/><ellipse class="cls-16" cx="770.93" cy="795.52" rx="3.76" ry="4.92"/><ellipse class="cls-16" cx="770.93" cy="789.5" rx="3.76" ry="4.92"/><ellipse class="cls-16" cx="770.93" cy="783.49" rx="3.76" ry="4.92"/><ellipse class="cls-16" cx="770.93" cy="777.47" rx="3.76" ry="4.92"/><path class="cls-9" d="M785,736.31a18.19,18.19,0,0,0,1.4-2.06l-9.88-1.62,10.68.08a18.06,18.06,0,0,0,.35-14.27l-14.34,7.44,13.22-9.72a18,18,0,1,0-29.73,20.15,18.35,18.35,0,0,0-2.06,3.29l12.83,6.66-13.68-4.59a18,18,0,0,0,2.91,16.91,18,18,0,1,0,28.31,0A18,18,0,0,0,785,736.31Z"/><path class="cls-9" d="M752.84,747.44a17.85,17.85,0,0,0,3.86,11.13,18,18,0,1,0,28.31,0C787.42,755.51,752.84,745.42,752.84,747.44Z"/></svg>