<svg xmlns="http://www.w3.org/2000/svg" viewBox="0 0 19 20"><defs><style>.cls-1{fill:#33ffd0;}.cls-2{fill:#99bbe0;}</style></defs><g id="Livello_2" data-name="Livello 2"><g id="Livello_1-2" data-name="Livello 1"><path class="cls-1" d="M14,2a1,1,0,0,1,0-2h4a1,1,0,0,1,1,1V5a1,1,0,0,1-2,0V3.41l-5.79,5.8a1,1,0,0,1-1.42,0L7,6.41l-5.29,5.3A1,1,0,0,1,.29,10.29l6-6a1,1,0,0,1,1.42,0l2.79,2.8L15.59,2Z"/><path class="cls-1" d="M2,16v3a1,1,0,0,1-2,0V16a1,1,0,0,1,2,0Z"/><path class="cls-2" d="M7,12a1,1,0,0,0-2,0v7a1,1,0,0,0,2,0Z"/><path class="cls-1" d="M11,13a1,1,0,0,1,1,1v5a1,1,0,0,1-2,0V14A1,1,0,0,1,11,13Z"/><path class="cls-2" d="M17,9a1,1,0,0,0-2,0V19a1,1,0,0,0,2,0Z"/></g></g></svg>