<svg xmlns="http://www.w3.org/2000/svg" viewBox="0 0 88.36 88.36"><defs><style>.cls-1,.cls-2{fill:#dadada;}.cls-1{fill-rule:evenodd;}</style></defs><g id="Livello_2" data-name="Livello 2"><g id="Livello_1-2" data-name="Livello 1"><path class="cls-1" d="M60.25,32.13A16.07,16.07,0,1,1,44.18,16.07,16.08,16.08,0,0,1,60.25,32.13Zm-8,0a8,8,0,1,1-8-8A8,8,0,0,1,52.21,32.13Z"/><path class="cls-1" d="M44.18,0A44.18,44.18,0,1,0,88.36,44.18,44.18,44.18,0,0,0,44.18,0ZM8,44.18A36,36,0,0,0,15.7,66.44a36.15,36.15,0,0,1,57.23-.34A36.15,36.15,0,1,0,8,44.18ZM44.18,80.33A36,36,0,0,1,21.4,72.25,28.13,28.13,0,0,1,67.29,72,36,36,0,0,1,44.18,80.33Z"/><polygon class="cls-1" points="17.13 70.29 33.98 83.47 58.11 83.47 72.66 70.29 55.04 57.81 36.15 57.81 17.13 70.29"/><circle class="cls-2" cx="44.35" cy="32.34" r="9.77"/></g></g></svg>