<svg xmlns="http://www.w3.org/2000/svg" width="730.51" height="80.66" viewBox="0 0 730.51 80.66">
  <defs>
    <style>
      .cls-1 {
        fill: #6c63ff;
      }

      .cls-2 {
        fill: #ff6584;
      }

      .cls-3 {
        fill: #ffdae2;
        fill-rule: evenodd;
      }
    </style>
  </defs>
  <g id="Livello_2" data-name="Livello 2">
    <g id="Livello_1-2" data-name="Livello 1">
      <g>
        <path class="cls-1" d="M31.35,45a5.67,5.67,0,0,0-2.14-4.72,26.71,26.71,0,0,0-7.53-3.5,72.78,72.78,0,0,1-8.82-3.5q-11.13-5.47-11.13-15A13.55,13.55,0,0,1,4.5,9.86,18,18,0,0,1,12.35,4.2a30.6,30.6,0,0,1,11.41-2,26.89,26.89,0,0,1,11.08,2.2,17.54,17.54,0,0,1,7.61,6.28A16.38,16.38,0,0,1,45.16,20H31.39a6.93,6.93,0,0,0-2.14-5.43,8.37,8.37,0,0,0-5.8-1.92,9.38,9.38,0,0,0-5.84,1.63,5,5,0,0,0-2.15,4.15,5,5,0,0,0,2.36,4q2.37,1.8,8.3,3.7a50.86,50.86,0,0,1,9.76,4.11q9.28,5.35,9.28,14.75A14,14,0,0,1,39.5,56.74Q33.83,61,24,61a30.92,30.92,0,0,1-12.61-2.49,19.05,19.05,0,0,1-8.5-6.85A17.84,17.84,0,0,1,0,41.67H13.85q0,4.61,2.38,6.79T24,50.64a8.86,8.86,0,0,0,5.41-1.48A4.86,4.86,0,0,0,31.35,45Z"/>
        <path class="cls-1" d="M105.27,13.62H88.08V60.24H74.27V13.62H57.39V3h47.88Z"/>
        <path class="cls-1" d="M147,49.54H128l-3.31,10.7H110L131,3h13l21.17,57.28H150.31ZM131.34,38.88h12.32L137.48,19Z"/>
        <path class="cls-1" d="M198.65,40h-7.48V60.24H177.36V3h22.55q10.18,0,15.93,4.52t5.74,12.77a18.53,18.53,0,0,1-2.42,9.9,17.16,17.16,0,0,1-7.57,6.37l12,23.13v.59H208.76Zm-7.48-10.62h8.74q3.93,0,5.92-2.07a8,8,0,0,0,2-5.78,8.1,8.1,0,0,0-2-5.82,7.76,7.76,0,0,0-5.9-2.11h-8.74Z"/>
        <path class="cls-1" d="M281,13.62H263.79V60.24H250V13.62H233.1V3H281Z"/>
        <path class="cls-1" d="M330.38,35.93H308.67V49.62h25.65V60.24H294.86V3H334.4V13.62H308.67V25.7h21.71Z"/>
        <path class="cls-1" d="M369.29,40h-7.48V60.24H348V3h22.54q10.2,0,15.94,4.52t5.74,12.77a18.62,18.62,0,0,1-2.42,9.9,17.22,17.22,0,0,1-7.57,6.37l12,23.13v.59H379.4Zm-7.48-10.62h8.73q3.94,0,5.92-2.07a8,8,0,0,0,2-5.78,8.1,8.1,0,0,0-2-5.82q-2-2.12-5.9-2.11h-8.73Z"/>
        <circle class="cls-2" cx="447.58" cy="31.6" r="31.6"/>
        <path class="cls-3" d="M446.13,15.58l.05,0a1.46,1.46,0,0,1,1-.43h.34a1.46,1.46,0,0,1,1.09.49l.09.1a1.47,1.47,0,0,1,.38,1V30a1.45,1.45,0,0,1-.53,1.12l-.05,0a1.46,1.46,0,0,1-.92.33h-.44a1.43,1.43,0,0,1-1-.37h0a1.45,1.45,0,0,1-.48-1.08V16.61A1.47,1.47,0,0,1,446.13,15.58Z"/>
        <path class="cls-3" d="M440.68,19.23a3.78,3.78,0,0,1-.25,1.11,13.34,13.34,0,0,0,7.24,24.57,13.08,13.08,0,0,0,13-13.44,13.34,13.34,0,0,0-5.87-11.13,8.39,8.39,0,0,1-.43-1l.94-1.46a1.16,1.16,0,0,1,.94-.26,16.83,16.83,0,0,1,7.74,14,16.43,16.43,0,1,1-32.86,0,17.48,17.48,0,0,1,7.66-14.21c.51-.34,1,.6,1,.6Z"/>
        <path d="M532.33,45a5.7,5.7,0,0,0-2.14-4.72,26.8,26.8,0,0,0-7.54-3.5,72.55,72.55,0,0,1-8.81-3.5q-11.13-5.47-11.13-15a13.48,13.48,0,0,1,2.77-8.4,17.94,17.94,0,0,1,7.85-5.66,30.52,30.52,0,0,1,11.41-2,26.84,26.84,0,0,1,11.07,2.2,17.48,17.48,0,0,1,7.61,6.28,16.38,16.38,0,0,1,2.72,9.3H532.37a7,7,0,0,0-2.14-5.43,8.4,8.4,0,0,0-5.81-1.92,9.42,9.42,0,0,0-5.84,1.63,5,5,0,0,0-2.14,4.15,5,5,0,0,0,2.36,4q2.36,1.8,8.3,3.7a50.47,50.47,0,0,1,9.75,4.11q9.28,5.35,9.29,14.75a14,14,0,0,1-5.67,11.81Q534.82,61,524.93,61a31,31,0,0,1-12.61-2.49,19,19,0,0,1-8.49-6.85,17.84,17.84,0,0,1-2.85-10h13.84c0,3.07.8,5.33,2.38,6.79s4.17,2.18,7.73,2.18a8.82,8.82,0,0,0,5.41-1.48A4.84,4.84,0,0,0,532.33,45Z"/>
        <path d="M593.81,49.54H574.89l-3.31,10.7H556.83L577.84,3h13L612,60.24H597.16ZM578.19,38.88h12.32L584.33,19Z"/>
        <path d="M656.75,49.54H637.83l-3.31,10.7H619.77L640.78,3h13l21.16,57.28H660.09ZM641.13,38.88h12.31L647.27,19Z"/>
        <path d="M716.7,45a5.68,5.68,0,0,0-2.15-4.72,26.71,26.71,0,0,0-7.53-3.5,72.55,72.55,0,0,1-8.81-3.5q-11.15-5.47-11.14-15a13.49,13.49,0,0,1,2.78-8.4,18,18,0,0,1,7.84-5.66,30.6,30.6,0,0,1,11.41-2,26.89,26.89,0,0,1,11.08,2.2,17.54,17.54,0,0,1,7.61,6.28,16.38,16.38,0,0,1,2.72,9.3H716.74a6.94,6.94,0,0,0-2.15-5.43,8.37,8.37,0,0,0-5.8-1.92A9.4,9.4,0,0,0,703,14.23a5,5,0,0,0-2.15,4.15,5,5,0,0,0,2.36,4q2.37,1.8,8.3,3.7a50.59,50.59,0,0,1,9.76,4.11q9.28,5.35,9.29,14.75a14,14,0,0,1-5.67,11.81Q719.17,61,709.3,61a30.92,30.92,0,0,1-12.61-2.49,19.11,19.11,0,0,1-8.5-6.85,17.84,17.84,0,0,1-2.85-10h13.85q0,4.61,2.38,6.79c1.59,1.45,4.16,2.18,7.73,2.18a8.84,8.84,0,0,0,5.41-1.48A4.87,4.87,0,0,0,716.7,45Z"/>
        <rect class="cls-2" y="73.68" width="730.51" height="6.99" rx="3.49"/>
      </g>
    </g>
  </g>
</svg>
