<svg xmlns="http://www.w3.org/2000/svg" xmlns:xlink="http://www.w3.org/1999/xlink" width="1432.63" height="240.4" viewBox="0 0 1432.63 240.4">
  <defs>
    <style>
      .cls-1 {
        fill: #007bff;
      }

      .cls-2 {
        fill: #33ffd0;
      }

      .cls-3 {
        fill: url(#Sfumatura_senza_nome_11);
      }

      .cls-4 {
        fill: #fff;
      }
    </style>
    <linearGradient id="Sfumatura_senza_nome_11" data-name="Sfumatura senza nome 11" x1="120.2" x2="120.2" y2="240.4" gradientUnits="userSpaceOnUse">
      <stop offset="0" stop-color="#007bff"/>
      <stop offset="0.14" stop-color="#0384fc"/>
      <stop offset="0.36" stop-color="#0d9cf3"/>
      <stop offset="0.65" stop-color="#1cc4e5"/>
      <stop offset="0.97" stop-color="#31fad2"/>
      <stop offset="1" stop-color="#33ffd0"/>
    </linearGradient>
  </defs>
  <g id="Livello_2" data-name="Livello 2">
    <g id="Livello_1-2" data-name="Livello 1">
      <g>
        <g>
          <path class="cls-1" d="M327.55,69.29H356l17.11,120.62H345.8l-2.53-24.8H298.83l-13.58,24.8H258.9Zm-17.51,75h30.61l-5-47.47Z"/>
          <path class="cls-1" d="M457.42,98.75l-5.07,23.89c-1.42-.16-2.7-.27-3.85-.33s-2.07-.08-2.78-.08q-14.07,0-20.87,9.17-3.77,5.16-6.05,15.87l-9,42.64H386.31l18.9-89.2h22.26l-3.27,15.55q7.28-8.92,11.95-12.19a30.8,30.8,0,0,1,18.25-5.49c.43,0,.8,0,1.1,0Z"/>
          <path class="cls-1" d="M457.83,118.14l3.52-16.61h12.44l5.32-24.88h23.08l-5.32,24.88h14.48l-3.52,16.61H493.35l-10.07,47.14q-1.14,5.47,0,6.83t8.23,1.35c.71,0,1.46,0,2.25,0l2.41-.12-3.76,17.43-11.13.41q-16.62.57-21.36-5.73-3-4-1.31-12.36l11.7-54.91Z"/>
          <path class="cls-1" d="M526.82,100.71h23.65l-18.91,89.2H507.92Zm25.94-10.64H529.11l4.58-21.52h23.65Z"/>
          <path class="cls-1" d="M619.54,132.71a17.44,17.44,0,0,0-1.48-9c-1.85-3.6-5.54-5.41-11-5.41q-11.79,0-18.58,11.71-3.6,6.21-5.81,16.53-2.05,9.81-1.07,15.79,1.8,11.13,13.34,11.13,8.19,0,12.57-4.42a27.76,27.76,0,0,0,6.58-11.45h23.82q-3,10.64-12,20.13Q611.68,193,590.16,193t-28.93-12.77q-7.41-12.76-3.07-33.14,4.83-23,18.78-35.76t33.68-12.77q16.77,0,25.86,7.53t6.95,26.6Z"/>
          <path class="cls-1" d="M686.72,193q-23,0-31.3-14t-4.13-33.6A65.11,65.11,0,0,1,669.7,112Q684,97.85,707,97.85T738.28,112q8.26,14.16,4.17,33.47A64.83,64.83,0,0,1,724,179.07Q709.72,193,686.72,193ZM718,145.47q2.87-13.41-1.1-20.66t-14.2-7.24a23.14,23.14,0,0,0-17.27,7.24q-7,7.24-9.9,20.66t1.1,20.71q4,7.27,14.2,7.28a23.1,23.1,0,0,0,17.27-7.28Q715.12,158.89,718,145.47Z"/>
          <path class="cls-1" d="M773.55,189.91H750.22L775.84,69.29h23.32Z"/>
          <path class="cls-1" d="M815.53,100.71h23.65l-18.91,89.2H796.62Zm25.94-10.64H817.82l4.58-21.52h23.65Z"/>
          <path class="cls-2" d="M928.54,115.69a37.64,37.64,0,0,1,2.86,18.41,114.92,114.92,0,0,1-2.94,17.67H867.41Q865,165.2,871.83,170.6q4.08,3.35,10.88,3.35a20.27,20.27,0,0,0,12.6-4.09,28.46,28.46,0,0,0,5.65-6.14h23.81q-2.61,7.93-11.7,16.12-14.24,13-34.86,13-17,0-27.7-11t-5.44-35.68q4.9-23.16,19.27-35.52a49.29,49.29,0,0,1,33.1-12.35q11.13,0,19.19,4.17A25.61,25.61,0,0,1,928.54,115.69Zm-57.29,20.7h36.26q1.38-9.24-2.66-14t-11.5-4.79a19.43,19.43,0,0,0-13.63,5.07A32.51,32.51,0,0,0,871.25,136.39Z"/>
          <path class="cls-1" d="M964.05,152.67c-.38,5.52.25,9.63,1.89,12.36q4.57,7.46,19.47,7.45a48.32,48.32,0,0,0,14.9-2q11.37-3.75,13.5-14,1.31-6-3.28-9.25t-15.22-5.64l-12.19-2.87q-17.93-4.24-24.06-9.24-10.39-8.36-6.63-26.11,3.44-16.2,17.52-26.92t36.9-10.72q19.06,0,30.36,10.1t7.86,29.34h-24.22q1.71-10.87-6.14-15.46-5.24-3-14-3-9.74,0-16.4,3.93a16.18,16.18,0,0,0-8.14,11q-1.39,6.47,3.68,9.66,3.18,2.13,14.65,5l19.72,5q12.93,3.27,18.74,8.76,9,8.51,5.56,24.63Q1035,171.17,1020,182.09T982,193q-23.57,0-34.77-10.76T940,152.67Z"/>
          <path class="cls-1" d="M1087.21,193q-23,0-31.3-14t-4.13-33.6A65.19,65.19,0,0,1,1070.19,112q14.32-14.15,37.32-14.15T1138.77,112q8.26,14.16,4.17,33.47a64.76,64.76,0,0,1-18.45,33.6Q1110.21,193,1087.21,193Zm31.26-47.55q2.87-13.41-1.1-20.66t-14.2-7.24a23.14,23.14,0,0,0-17.27,7.24q-7,7.24-9.9,20.66t1.11,20.71q4,7.27,14.19,7.28a23.1,23.1,0,0,0,17.27-7.28Q1115.61,158.89,1118.47,145.47Z"/>
          <path class="cls-1" d="M1215.61,132.71a17.54,17.54,0,0,0-1.47-9q-2.79-5.4-11.05-5.41-11.79,0-18.58,11.71-3.6,6.21-5.81,16.53-2,9.81-1.06,15.79,1.8,11.13,13.34,11.13,8.18,0,12.56-4.42a27.77,27.77,0,0,0,6.59-11.45h23.81q-3,10.64-12,20.13-14.23,15.3-35.76,15.3t-28.93-12.77q-7.41-12.76-3.07-33.14,4.83-23,18.78-35.76t33.68-12.77q16.77,0,25.86,7.53t7,26.6Z"/>
          <path class="cls-1" d="M1262.66,100.71h23.65l-18.9,89.2h-23.65Zm25.94-10.64H1265l4.59-21.52h23.65Z"/>
          <path class="cls-1" d="M1336.48,135.65a41.24,41.24,0,0,0,9.73-2q5.4-2.13,6.39-6.63,1.14-5.48-2.21-7.57t-10.72-2.09q-8.26,0-12.61,4.1a23,23,0,0,0-5,8.18h-22.5a43.75,43.75,0,0,1,10.64-19.23Q1322,98.58,1344.5,98.58q14.64,0,24.79,5.81t6.71,21.93l-8.75,40.92q-.91,4.26-2,10.31-.73,4.59,0,6.22a6.08,6.08,0,0,0,2.82,2.7l-.65,3.44h-25.37a23.92,23.92,0,0,1-.41-5.07c.06-1.59.22-3.39.49-5.41a65.68,65.68,0,0,1-13,8.92,39,39,0,0,1-18,4.34q-12.12,0-18.54-6.91t-3.72-19.6q3.52-16.45,17.76-23.82,7.77-4,21.68-5.72Zm11.86,10.89a30.61,30.61,0,0,1-4.91,2.25,44.68,44.68,0,0,1-6.55,1.59l-5.4,1q-7.7,1.31-11.29,3.19a13.86,13.86,0,0,0-7.45,9.9q-1.31,6,1.44,8.63a10.24,10.24,0,0,0,7.48,2.66,28.26,28.26,0,0,0,14.82-4.42q7.27-4.41,10.06-16.12Z"/>
          <path class="cls-1" d="M1407,189.91h-23.33l25.62-120.62h23.32Z"/>
        </g>
        <g>
          <circle class="cls-3" cx="120.2" cy="120.2" r="120.2"/>
          <path class="cls-4" d="M171.71,110.62H129.78a14.37,14.37,0,0,1-14.37-14.38V54.32a1.2,1.2,0,0,0-1.2-1.2H86.66A19.16,19.16,0,0,0,67.49,72.28v95.84a19.16,19.16,0,0,0,19.17,19.16h67.08a19.16,19.16,0,0,0,19.17-19.16h0v-56.3a1.2,1.2,0,0,0-1.2-1.2Zm-27.55,47.91H96.24a4.79,4.79,0,0,1,0-9.58h47.92a4.79,4.79,0,0,1,0,9.58Zm0-23.95H96.24a4.8,4.8,0,0,1,0-9.59h47.92a4.8,4.8,0,0,1,0,9.59Z"/>
          <path class="cls-4" d="M169.08,100,126,57a.58.58,0,0,0-.84,0,.6.6,0,0,0-.18.42V96.24a4.79,4.79,0,0,0,4.79,4.79h38.88a.6.6,0,0,0,.6-.6.67.67,0,0,0-.18-.42Z"/>
        </g>
      </g>
    </g>
  </g>
</svg>
