<svg xmlns="http://www.w3.org/2000/svg" viewBox="0 0 3956 492.61"><defs><style>.cls-1{fill:#1565c0;}.cls-2{fill:#2194f3;}.cls-3{fill:#fff;}</style></defs><title>logoRisorsa 1logo dev nuovi colori</title><g id="Livello_2" data-name="Livello 2"><g id="Livello_1-2" data-name="Livello 1"><path class="cls-1" d="M881.47,399.68a25.26,25.26,0,0,1-25.31-25.3V117.72a24.56,24.56,0,0,1,7.51-18,24.21,24.21,0,0,1,17.8-7.29h65q63.47,0,108.5,44.81,44.8,45,44.81,108.28,0,63.48-44.81,108.28c-30,30-66.19,45.89-108.5,45.89h-65Zm25.51-51h39.24c28.44,0,52.67-10.65,72.68-30.66s30-44.17,30-72.48q0-42.22-30-72.25Q988.89,143,946.43,143H907Z"/><path class="cls-1" d="M1338,349a23.83,23.83,0,0,1,17.76,7.49,24.51,24.51,0,0,1,7.49,18A25.58,25.58,0,0,1,1338,399.68h-154.9a25.58,25.58,0,0,1-25.24-25.25V117.91a24,24,0,0,1,7.49-18,23.75,23.75,0,0,1,17.75-7.49H1338c7,0,13,2.92,18,7.91a24.9,24.9,0,0,1,7.28,18A25.58,25.58,0,0,1,1338,143.58H1208.6v77.24h93.28a24.9,24.9,0,0,1,18,7.27,25.33,25.33,0,0,1,0,35.94,24.91,24.91,0,0,1-18,7.28H1208.6V349Z"/><path class="cls-1" d="M1619.15,94.12a24.17,24.17,0,0,1,14.4,12.89,24.56,24.56,0,0,1,1.07,19.34l-90,256.35v.22c-.43,1-.93,2.07-1.51,3.22a2.14,2.14,0,0,1-.43.64c-.57,1-1.14,1.94-1.71,2.8.28-.29.14-.07-.43.64l-2.15,2.15-.43.43a21,21,0,0,1-2.58,2.15c.28-.14.14,0-.43.43a17.67,17.67,0,0,1-2.79,1.5l-.43.22a18.79,18.79,0,0,1-2.58,1.07l-.43.22a11.29,11.29,0,0,1-2.8.64c-1.14.29-1.5.36-1.07.22a19.62,19.62,0,0,1-8.17,0c.43.14.07.07-1.07-.22a11.09,11.09,0,0,1-2.79-.64l-.43-.22a18.79,18.79,0,0,1-2.58-1.07l-.65-.22a24.54,24.54,0,0,1-2.58-1.5l-.21-.22-.21-.21a9.14,9.14,0,0,1-2.58-2.15c0,.15-.22,0-.65-.43a23.53,23.53,0,0,1-1.93-2.15c-.29-.28-.43-.5-.43-.64-.58-.86-1.15-1.79-1.72-2.8a2.14,2.14,0,0,1-.43-.64c-.57-1.15-1.07-2.22-1.5-3.22v-.22l-90-256.35a24.6,24.6,0,0,1,1.07-19.34,24.17,24.17,0,0,1,14.4-12.89,24.56,24.56,0,0,1,19.34,1.07,24.17,24.17,0,0,1,12.89,14.4L1520.74,298l66.18-188.45a24.17,24.17,0,0,1,12.89-14.4c6.3-3,9.46-2.52,9.46-2.52S1612.56,91.83,1619.15,94.12Z"/><path class="cls-2" d="M1719.31,399.68a25.72,25.72,0,0,1-25.37-25.37V117.81a25.37,25.37,0,0,1,50.74,0v256.5a25.7,25.7,0,0,1-25.37,25.37Z"/><path class="cls-2" d="M2040.12,390.05h-.21v-.21L1886.08,191.93v182.5a25.25,25.25,0,0,1-50.49,0V118.12a24,24,0,0,1,4.71-14.55,24.23,24.23,0,0,1,12.4-9.2,23.76,23.76,0,0,1,15.41-.42,24.61,24.61,0,0,1,12.62,8.77l153.83,198.11V118.12a24.16,24.16,0,0,1,7.27-17.76,24.54,24.54,0,0,1,18-7.48,25.56,25.56,0,0,1,25.24,25.24V374.86a5.88,5.88,0,0,1-.21,1.28v1.07a6.11,6.11,0,0,1-.22,1.29,3,3,0,0,1-.21,1.28l-.21,1.07a3.18,3.18,0,0,1-.43,1.28,3.88,3.88,0,0,1-.43,1.07,6.83,6.83,0,0,1-.43,1.29l-.43,1.07-.64,1.07-.64,1.28-.64.64a9,9,0,0,1-.86,1.29l-.64.85-.85.86c-.43.57-.72.85-.86.85,0,.15-.29.43-.86.86a4.18,4.18,0,0,1-1.07.85c.43-.28.36-.21-.21.22l-.21.21a32.45,32.45,0,0,1-3.21,2.14h-.22a36.28,36.28,0,0,1-3.42,1.5c-.57.29-.72.36-.43.21a14.78,14.78,0,0,1-3.64.86l-.64.21a31.21,31.21,0,0,1-3.63.22,18.84,18.84,0,0,1-2.79-.22c.29.15.14.15-.42,0-.86-.14-1.57-.28-2.14-.42.14.14-.15.07-.86-.22a13.13,13.13,0,0,1-1.71-.43,2.26,2.26,0,0,1-.86-.42,4.85,4.85,0,0,1-1.71-.65,1.21,1.21,0,0,1-.85-.42,12.86,12.86,0,0,0-1.5-.65,5.32,5.32,0,0,1-.86-.64c-.42-.28-.93-.64-1.49-1.07a6,6,0,0,1-.86-.64,22.28,22.28,0,0,1-1.93-1.71l-.21-.22v-.21l-.86-.85Z"/><path class="cls-2" d="M2217,142.94h-63.54a24.48,24.48,0,0,1-18-7.49,25.32,25.32,0,0,1,0-35.51,24.48,24.48,0,0,1,18-7.49h177.79a25.21,25.21,0,0,1,25,25.24,25.21,25.21,0,0,1-25,25.25h-63.76V374.43a24.51,24.51,0,0,1-7.49,18,25.29,25.29,0,0,1-35.51,0,24.47,24.47,0,0,1-7.49-18Z"/><path class="cls-2" d="M2579.22,349a23.83,23.83,0,0,1,17.76,7.49,24.51,24.51,0,0,1,7.49,18,25.58,25.58,0,0,1-25.25,25.25H2424.33a25.58,25.58,0,0,1-25.25-25.25V117.91a24,24,0,0,1,7.49-18c4.85-5,10.77-7.06,17.76-7.06h154.89a24.54,24.54,0,0,1,18,7.48,24.93,24.93,0,0,1,7.27,18,23.8,23.8,0,0,1-7.49,17.76c-4.85,5-10.77,7.21-17.76,7.21H2449.79v77.52h93.28a24.89,24.89,0,0,1,18,7.27,25.3,25.3,0,0,1,0,35.94,24.9,24.9,0,0,1-18,7.28h-93.28V349Z"/><path class="cls-2" d="M2876.11,181.66a82,82,0,0,1-17.55,51.14,91.79,91.79,0,0,1-44.5,32.3l48.57,98.42a25.49,25.49,0,0,1-11.56,33.59,25.4,25.4,0,0,1-11.12,2.57q-15.61,0-22.46-14.12l-56.7-114.89h-43.43V374.56a25.2,25.2,0,0,1-25.25,25,24.82,24.82,0,0,1-25-25V117.69a25.2,25.2,0,0,1,25-25.24h88.58q39.57,0,67.39,26.1Q2876.1,144.65,2876.11,181.66Zm-93.71,38.73q18-.64,30.81-11.77,12.61-11.34,12.62-27,0-16.24-13.27-27.6t-31.87-11.33h-63.33v77.66Z"/><path class="cls-2" d="M3119.14,92.88a24.53,24.53,0,0,1,18,7.48,24.93,24.93,0,0,1,7.27,18,25.58,25.58,0,0,1-25.24,25.25h-.22l-129.22-.43v77.67H3083a24.86,24.86,0,0,1,18,7.27,25.3,25.3,0,0,1,0,35.94,24.87,24.87,0,0,1-18,7.28H2989.7V374.43a23.83,23.83,0,0,1-7.49,17.76,24.54,24.54,0,0,1-18,7.49A25.58,25.58,0,0,1,2939,374.43V117.91a24.07,24.07,0,0,1,7.49-18,23.79,23.79,0,0,1,17.76-7.49h.21Z"/><path class="cls-2" d="M3152.53,397.74a25.38,25.38,0,0,1-13.76-33.13L3166.09,299v-.21l79.16-191a13.88,13.88,0,0,1,1.07-2.15l.43-1.08c.43-.57.72-.93.86-1.08a3.2,3.2,0,0,1,.65-1.07c.43-.43.71-.72.86-.86,0-.14.21-.43.64-.86s.86-.93.86-1.08a8.22,8.22,0,0,1,.87-.64c.57-.57.93-.86,1.07-.86-.14,0,.14-.22.86-.65.57-.43.93-.71,1.08-.86l.86-.64a4.62,4.62,0,0,1,1.29-.65c.28-.14.78-.36,1.5-.65s.94-.57.65-.43l.86-.43a6.23,6.23,0,0,0,1.51-.43,8.73,8.73,0,0,0,1.5-.43l.86-.21a8.56,8.56,0,0,0,1.51-.22l1.07-.21h4.95l1.29.21,1.08.22a4.88,4.88,0,0,1,1.5.43c.86.14,1.15.21.86.21a17.44,17.44,0,0,1,4.74,1.94c-.15-.14.14,0,.86.43a10.51,10.51,0,0,1,1.29.86l.86.65a13.35,13.35,0,0,1,1.07.86c.14,0,.43.21.86.64a4.46,4.46,0,0,0,1.08.86c0,.15.21.43.64.86.58.58.86.94.86,1.08l.65.86c.57.57.86.93.86,1.07a3.11,3.11,0,0,0,.65,1.08,3,3,0,0,1,.64,1.08,14.91,14.91,0,0,1,1.08,2.15l79.16,191V299l27.32,65.61A25.41,25.41,0,0,1,3375,399.68q-17,0-23.45-15.71l-20.65-49.9H3206.31L3185.66,384q-6.45,15.7-23.45,15.71a17.7,17.7,0,0,1-4.94-.43A18.31,18.31,0,0,1,3152.53,397.74ZM3310,283.52l-41.52-99.82-41.3,99.82Z"/><path class="cls-2" d="M3581.85,399.68q-63.39,0-108.52-44.91-44.91-45.13-44.91-108.52,0-63.6,44.91-108.51,45.14-45.14,108.52-45.13,52.21,0,93.69,31.8a25.33,25.33,0,0,1,9.67,16.76,24.9,24.9,0,0,1-5.16,18.91,24.18,24.18,0,0,1-16.76,9.67,25.38,25.38,0,0,1-18.91-4.94,99.52,99.52,0,0,0-62.53-21.27q-42.33,0-72.42,30.08t-30.08,72.63q0,42.35,30.08,72.42t72.42,30.08q40,0,69.19-26.64a24.6,24.6,0,0,1,18.27-6.67,24.12,24.12,0,0,1,17.62,8.38,24.63,24.63,0,0,1,6.66,18.27,24.37,24.37,0,0,1-8.17,17.62Q3641.37,399.67,3581.85,399.68Z"/><path class="cls-2" d="M3930.75,349a23.83,23.83,0,0,1,17.76,7.49,24.51,24.51,0,0,1,7.49,18,25.58,25.58,0,0,1-25.25,25.25H3775.86a25.58,25.58,0,0,1-25.25-25.25V117.91a24,24,0,0,1,7.49-18,23.79,23.79,0,0,1,17.76-7.49h.21l154.68.43a24.54,24.54,0,0,1,18,7.48,24.93,24.93,0,0,1,7.27,18,23.8,23.8,0,0,1-7.49,17.76c-4.85,5-10.77,7.06-17.76,7.06H3801.32v77.67h93.28a24.89,24.89,0,0,1,18,7.27,25.3,25.3,0,0,1,0,35.94,24.9,24.9,0,0,1-18,7.28h-93.28V349Z"/><path class="cls-1" d="M7.74,207.33H0V290c0,13.21,8.68,25.12,23.26,33.54L295,480.26c13.79,8,33,12.35,53.7,12.35,24.94,0,50.21-6.29,69.2-17.25L672.38,328.47c19.75-11.4,31.11-26.91,31.11-42.53,0-1.67-.11-2.54,0-4.49l-.38-78.37"/><path d="M407.65,178.32c-13.79-8-32.8-12.35-53.53-12.35-24.94,0-50.13,6.28-69.11,17.24"/><path class="cls-2" d="M680.81,169.35l-271.89-157C395.1,4.39,376.06,0,355.29,0c-25,0-50.22,6.3-69.24,17.28L31.15,164.44C11.35,175.87,0,191.41,0,207.06c0,13.23,8.05,25.16,22.66,33.6l271.89,157c13.82,8,32.86,12.38,53.63,12.38,25,0,50.22-6.3,69.24-17.28l254.9-147.17c19.8-11.42,31.15-27,31.15-42.61C703.47,189.72,695.42,177.78,680.81,169.35Z"/><path class="cls-3" d="M476.05,114,356.9,182.81c-7.29,4.21-18.44,4.68-24.76,1l-19.86-11.47c-6.32-3.65-5.52-10.08,1.78-14.3L433.2,89.28c7.3-4.21,18.44-4.67,24.76-1l19.87,11.47C484.15,103.38,483.35,109.81,476.05,114Z"/><path class="cls-3" d="M536.74,149.06,417.59,217.85c-7.29,4.21-18.44,4.67-24.76,1L373,207.41c-6.32-3.65-5.52-10.09,1.78-14.3l119.14-68.79c7.3-4.21,18.44-4.67,24.76-1l19.87,11.47C544.84,138.42,544,144.85,536.74,149.06Z"/><path class="cls-3" d="M391.66,305.46,162.32,173c-6.32-3.65-5.52-10.08,1.78-14.29L187,145.5c7.3-4.21,18.44-4.67,24.76-1L441.14,276.89c6.32,3.65,5.52,10.08-1.78,14.3l-22.94,13.24C409.13,308.64,398,309.1,391.66,305.46Z"/><path class="cls-3" d="M321.59,345.92,92.24,213.5c-6.32-3.65-5.52-10.08,1.78-14.29L117,186c7.29-4.21,18.44-4.67,24.76-1L371.06,317.35c6.32,3.65,5.52,10.08-1.78,14.3l-22.93,13.24C339.05,349.1,327.91,349.56,321.59,345.92Z"/></g></g></svg>