<svg xmlns="http://www.w3.org/2000/svg" viewBox="0 0 624.28 106.83"><defs><style>.cls-1{fill:#c4571d;}.cls-2{fill:#81D39F;}.cls-3{fill:#ffc034;}.cls-4{fill:#fff;}</style></defs><title>Risorsa 3menuclick24</title><g id="Livello_2" data-name="Livello 2"><g id="Livello_1-2" data-name="Livello 1"><path class="cls-1" d="M32.46,66.84H20.6L28.56,2h.09L57.28,51.08,52.2,49.9,92.61,2h.17l-8,64.89H72.53L77.1,29.65V36L52.28,66h-.17l-18-30L37,30.16Z"/><path class="cls-1" d="M124.54,57.77a9.1,9.1,0,0,0,3.27-.59A26.69,26.69,0,0,0,131,55.74l4.15,9.15A30,30,0,0,1,129.25,67a24.94,24.94,0,0,1-6,.76,25.23,25.23,0,0,1-10.63-2.08,15.56,15.56,0,0,1-7.07-6.35A20.61,20.61,0,0,1,103,48.63a21.29,21.29,0,0,1,5-13.52,19.23,19.23,0,0,1,6.77-5A23.9,23.9,0,0,1,125,28.12a25.74,25.74,0,0,1,6.39.81,15.85,15.85,0,0,1,5.85,2.88,17,17,0,0,1,4.57,5.8,29.83,29.83,0,0,1,2.67,9.66l-29.82,7.37L112.77,48,136,42l-4.15,1.27a7.22,7.22,0,0,0-7.29-5.93A9.78,9.78,0,0,0,119,38.8a8.42,8.42,0,0,0-3.09,3.73,11.93,11.93,0,0,0-1,4.74,11.51,11.51,0,0,0,1.56,6.52,8.11,8.11,0,0,0,3.82,3.14A12.16,12.16,0,0,0,124.54,57.77Z"/><path class="cls-1" d="M170.12,29.82l.25,7.37L170,35.83a17.93,17.93,0,0,1,6.31-5.63A18.65,18.65,0,0,1,185.37,28a11.27,11.27,0,0,1,8.34,3.09,9.6,9.6,0,0,1,2.67,8L193,66.84H181.13L184,43.54a5.91,5.91,0,0,0-.89-3.94c-.7-1-2-1.48-3.94-1.48a7.74,7.74,0,0,0-5,1.78,13.27,13.27,0,0,0-3.69,4.83,23.34,23.34,0,0,0-1.95,7l-1.86,15.08H154.87l4.49-37Z"/><path class="cls-1" d="M221.2,68.62a10.68,10.68,0,0,1-8-3.09,9.75,9.75,0,0,1-2.58-8L214,29.82h11.86L223,53.12a7.08,7.08,0,0,0,.8,3.93c.6,1,1.77,1.49,3.52,1.49a7.37,7.37,0,0,0,4.78-1.78,13.81,13.81,0,0,0,3.61-4.87,22.3,22.3,0,0,0,1.86-7l1.86-15.08h11.86l-4.57,37H235.94l-.09-7.37.26,1.35a17.92,17.92,0,0,1-3.77,4.07,17.12,17.12,0,0,1-5,2.75A18.45,18.45,0,0,1,221.2,68.62Z"/><path class="cls-2" d="M312.52,63.2a28.4,28.4,0,0,1-3.6,1.82,38,38,0,0,1-6.18,2,32.9,32.9,0,0,1-7.84.89,37.63,37.63,0,0,1-10-1.44,29.57,29.57,0,0,1-9.7-4.74,24.31,24.31,0,0,1-7.28-8.9q-2.81-5.59-2.8-13.89a45.19,45.19,0,0,1,1.19-10.42A35.83,35.83,0,0,1,270,19a29.76,29.76,0,0,1,6.31-7.8A28,28,0,0,1,285.33,6a34.87,34.87,0,0,1,11.94-1.9,31.51,31.51,0,0,1,12.2,2.16,39.32,39.32,0,0,1,8.22,4.44l-6.27,11.27a32.4,32.4,0,0,0-5.17-3.64A17.79,17.79,0,0,0,298.46,16a19.6,19.6,0,0,0-8.35,1.23,17.22,17.22,0,0,0-6.48,4.45,20.69,20.69,0,0,0-4.19,7.11A27.3,27.3,0,0,0,278,38a21.42,21.42,0,0,0,1.18,7.28A16.12,16.12,0,0,0,282.57,51a15.38,15.38,0,0,0,5.51,3.68A19.38,19.38,0,0,0,295.41,56a21.52,21.52,0,0,0,6.27-.8,23.7,23.7,0,0,0,4.4-1.78c1.19-.65,2.09-1.17,2.71-1.57Z"/><path class="cls-2" d="M334.88,0h11.86l-8.13,66.84H326.75Z"/><path class="cls-2" d="M359.62,29.82h11.86l-4.58,37H355Zm.76-13a6.22,6.22,0,0,1,1.86-4.57,6.67,6.67,0,0,1,4.92-1.87,8.45,8.45,0,0,1,4.23,1.23,4.54,4.54,0,0,1,2.12,4.28,6.26,6.26,0,0,1-1.86,4.53,6.58,6.58,0,0,1-4.92,1.91,8.35,8.35,0,0,1-4.23-1.23A4.53,4.53,0,0,1,360.38,16.77Z"/><path class="cls-2" d="M415.27,64.47a21.61,21.61,0,0,1-6,2.54,24.14,24.14,0,0,1-12.5.21,22.05,22.05,0,0,1-6.52-2.63,15.6,15.6,0,0,1-5.38-5.42,17,17,0,0,1-2.16-9,22.68,22.68,0,0,1,1.27-7.37,22.39,22.39,0,0,1,3.81-6.86,18.79,18.79,0,0,1,6.44-5A20.83,20.83,0,0,1,403.41,29a23.65,23.65,0,0,1,9.53,1.7,20.47,20.47,0,0,1,6.32,4.15l-6.7,7.2a12.94,12.94,0,0,0-3.22-2.21,11.12,11.12,0,0,0-5.16-1.1,8.79,8.79,0,0,0-4.66,1.36A10.21,10.21,0,0,0,396,43.8a10.91,10.91,0,0,0-1.36,5.5,8.94,8.94,0,0,0,1.19,4.58,8.8,8.8,0,0,0,3.39,3.26,10.61,10.61,0,0,0,5.25,1.23,11.26,11.26,0,0,0,3.18-.43,8.55,8.55,0,0,0,2.67-1.27Z"/><path class="cls-2" d="M428.74,66.84,436.87,0h11.86L440.6,66.84Zm9.57-10.25.17-11.27,24.4-16.43,6.36,6.35Zm14.74-14.91,13.73,25.16H453l-8.56-18.38Z"/><path class="cls-2" d="M475.92,66.34q8.16-7.41,13.67-12.63t8.93-8.85a56.52,56.52,0,0,0,5.19-6.18,18.82,18.82,0,0,0,2.42-4.48,11.83,11.83,0,0,0,.66-3.83,8.42,8.42,0,0,0-1-4.32,6.3,6.3,0,0,0-2.75-2.56,10.87,10.87,0,0,0-7.74-.28,7.46,7.46,0,0,0-2.59,1.6,7,7,0,0,0-1.65,2.39,7.46,7.46,0,0,0-.58,2.92,11.15,11.15,0,0,0,.62,3.83A11.89,11.89,0,0,0,492.8,37l-8.15,6.66A20.78,20.78,0,0,1,482,40a25.09,25.09,0,0,1-2.26-5.19,19.23,19.23,0,0,1-.91-5.76,16.24,16.24,0,0,1,1.28-6.17A17.88,17.88,0,0,1,484,17.07a19.62,19.62,0,0,1,6.71-4.32,25.46,25.46,0,0,1,9.59-1.65A23.9,23.9,0,0,1,511,13.2a14.42,14.42,0,0,1,6.3,5.81,16.88,16.88,0,0,1,2.1,8.48,25.7,25.7,0,0,1-.87,6.75,24.41,24.41,0,0,1-2.88,6.5,51.42,51.42,0,0,1-5.35,7.08Q507,51.6,502.1,56.38l-5.6-1.56h20.25l-1.4,11.52Z"/><path class="cls-2" d="M525,54.4v-.08L565.07,11.1h.09L561,45.35h6.5l-1.07,9h-6.5l-1.48,11.94h-12l1.48-11.94Zm25.43-16.95-7.82,9-.9-1.07h7.24L550,37Z"/><path class="cls-3" d="M570.67,91.18,0,86.18l570.67-5a5,5,0,0,1,.09,10Z"/><circle class="cls-3" cx="603.62" cy="86.18" r="20.65"/><path class="cls-4" d="M588.92,94.35l14.75-2a2,2,0,0,0,1.73-2h0a2,2,0,0,0-1.73-2l-14.75-2a.32.32,0,0,1,0-.63l14.75-2a2,2,0,0,0,1.73-2h0a2,2,0,0,0-1.73-2l-14.75-2a.32.32,0,0,1,0-.63l14.8-2a14.88,14.88,0,0,1,6.82.64c4.74,1.67,8.07,5.57,8.07,10.12s-3.33,8.45-8.07,10.12a14.74,14.74,0,0,1-6.82.64l-14.8-2A.32.32,0,0,1,588.92,94.35Z"/></g></g></svg>