<svg xmlns="http://www.w3.org/2000/svg" viewBox="0 0 726.13 726.13"><defs><style>.cls-1{fill:#fff;}</style></defs><g id="Livello_2" data-name="Livello 2"><g id="Livello_1-2" data-name="Livello 1"><path class="cls-1" d="M363.06,726.13A363.16,363.16,0,0,1,221.74,28.53,363.16,363.16,0,0,1,504.39,697.59,360.75,360.75,0,0,1,363.06,726.13Zm0-711.13A348.07,348.07,0,0,0,116.94,609.18,348.06,348.06,0,0,0,609.18,117,345.8,345.8,0,0,0,363.06,15Z"/><path class="cls-1" d="M222.47,109.83l33.67,254a34.2,34.2,0,0,0,33.91,29.71h0A34.2,34.2,0,0,0,324,363.85l33.67-254c.84-6.34,10-6.34,10.86,0l33.67,254a34.22,34.22,0,0,0,33.92,29.71h0A34.22,34.22,0,0,0,470,363.85l33.67-254c.84-6.34,10-6.34,10.86,0L548.3,364.67c5.23,39.47,2.18,79.87-11,117.44-28.7,81.65-95.89,138.94-174.21,138.94s-145.5-57.29-174.2-138.94c-13.21-37.57-16.26-78-11-117.44l33.78-254.84C212.45,103.49,221.63,103.49,222.47,109.83Z"/></g></g></svg>