<svg xmlns="http://www.w3.org/2000/svg" viewBox="0 0 493.42 493.42"><defs><style>.cls-1{fill:#81D39F;}</style></defs><g id="Livello_2" data-name="Livello 2"><g id="Livello_1-2" data-name="Livello 1"><g id="Spunta"><path class="cls-1" d="M421.16,72.26a246.71,246.71,0,0,0-348.9,0c-96.35,96.34-96.35,252.56,0,348.9a246.71,246.71,0,0,0,348.9,0C517.5,324.82,517.5,168.6,421.16,72.26ZM393.91,393.9a208.18,208.18,0,0,1-294.4,0c-81.15-81.16-81.15-213.22,0-294.38a208.18,208.18,0,0,1,294.4,0C475.06,180.68,475.06,312.74,393.91,393.9Z"/><polygon class="cls-1" points="212.97 258.61 162.07 203.3 105.83 259.55 105.82 259.54 211.82 365.56 390.96 186.45 350.02 144.83 212.97 258.61"/></g></g></g></svg>