<svg xmlns="http://www.w3.org/2000/svg" viewBox="0 0 854.79 597.43"><defs><style>.cls-1{fill:#5a4895;}.cls-2{fill:#2f2e41;}.cls-3{fill:#ffb9b9;}.cls-4{fill:#3f3d56;}.cls-5{fill:#81D39F;}.cls-6{fill:#575a88;}.cls-7{fill:#c4571d;}.cls-16,.cls-8{opacity:0.1;isolation:isolate;}.cls-9{fill:#9f616a;}.cls-10{fill:#f2f2f2;}.cls-11{fill:#d0cde1;}.cls-12{fill:#daa143;}.cls-13{fill:#FF8484;}.cls-14{fill:#d0794a;}.cls-15{fill:#e8780b;}.cls-16,.cls-18{fill:#fff;}.cls-17{fill:#7d9f4d;}</style></defs><g id="Livello_2" data-name="Livello 2"><g id="fd0d1b37-5b90-41a2-b2fb-759c1923dc4a"><path class="cls-1" d="M522,309.09V505h30.8V326.39h123.1V505h30.8V113.29h-30.8c-10.2,0-25.9,53.1-25.9,106.5,0,40.2,4.7,74.7,11.4,89.3Zm153.9,0h-.3c.1-.2.2-.5.3-.7Z"/><path class="cls-2" d="M636.09,16.39h0c-25.3,0-45.8,22.7-45.8,50.8v35.6h11l6.3-13.2-1.6,13.2h70.4l5.8-12-1.4,12h7.9v-28C688.69,42.59,665.19,16.39,636.09,16.39Z"/><path class="cls-2" d="M583.59,249.19l-28.1,11.9-97.6,79.4a28.39,28.39,0,0,0-6.3,15.5c-.7,9.1-30.2,56.9-19.7,63.2s48.5,25.3,50.6,12.6,13.3-66.7,13.3-66.7l94.1-84.3Z"/><path class="cls-2" d="M473.39,421.29l-11.9,35.1s12.6,13.3,6.3,24.6v38.6h-9.9l-2.8-20.4s-11.2,20.1-16.9,20.4c-11.9.5-35.3,4.8-36-1.6s17.8-12.5,17.8-12.5l19.7-54.1,8.4-33Z"/><path class="cls-2" d="M656.69,240.09s6.3,61.8-11.9,73.1-99,47.1-99,47.1,34.4,32.3,27.4,40-38.6,28.8-42.8,24.6-51.3-54.8-45.7-70.9,83.6-68.8,83.6-68.8l9.1-33,2.8-26.7,29.5-19Z"/><circle class="cls-3" cx="624.49" cy="66.89" r="29.3"/><path class="cls-3" d="M647.19,78.89s-1.4,26.7,20.4,35.1-54.1,63.2-54.1,63.2v-61.1s9.8-10.5,0-26.7Z"/><path class="cls-3" d="M693.89,204.29l-5.6,27.4-16.9,94.1s14,40-4.9,39.3-9.8-43.6-9.8-43.6l9.8-78v-30.2Z"/><path class="cls-3" d="M573.09,190.89l-6.3,24.6L538,285s-19.7,33-3.5,32.3,16.2-32.3,16.2-32.3l33-56.2v-31.6Z"/><path class="cls-2" d="M568.19,396l23.2,21.8s16.2-3.5,22.5,15.5,10.5,30.9,10.5,30.9l-8.4,4.9-10.5-14.8s-6.3,26.7-12.6,28.8-37.9,16.2-35.1,0l15.5-22.5s2.1-25.3-4.2-27.4-23.2-23.2-23.2-23.2Z"/><path class="cls-4" d="M657.79,261.89s-66-23.9-70.2-21.8a30.84,30.84,0,0,1-9.9,2.6l.1-9.6s21.8-7.7,33.7-2.8S660,257,660,257Z"/><path class="cls-5" d="M617.69,163.19s19-21.8,24.6-35.1a34.61,34.61,0,0,1,18.2-17.9s42.2,9.5,41.5,26.4-26.7,42.8-26.7,42.8,3.5,93.4-15.5,92a40.18,40.18,0,0,1-8.4-16.9c-2.1-9.8-67.4-20.4-67.4-20.4s-5.6,9.8-6.3,5.6,5.6-107.5,5.6-107.5l33.5-22.1Z"/><path class="cls-5" d="M696.59,129.69l.5.3a9.51,9.51,0,0,1,4.9,8.5v52.1a9.54,9.54,0,0,0,3.5,7.4c2.7,2.3,5.2,5.6,0,7.3-8.4,2.8-41.4,16.9-42.1,11.9s-2.1-10.5,0-10.5c1.6,0,11.5-50.4,19.4-71.9a9.72,9.72,0,0,1,12.4-5.8A9.14,9.14,0,0,1,696.59,129.69Z"/><path class="cls-5" d="M592.79,129.79l-9.8,2.8-11.2,48.5s-13.3,2.8-9.1,7.7,21.8,17.6,21.8,17.6Z"/><path class="cls-2" d="M649.09,30.39a24.12,24.12,0,0,0-18.9-9.7h-.9c-17.3,0-31.4,15.7-31.4,35h5.8l.9-7.1,1.4,7.1h34.4l2.9-6-.7,6h6.8c3.2,15.7-1.4,31.4-13.6,47.1h11.5l5.8-12.1-1.4,12.1h22l4.2-27.8C677.89,54.19,665.79,36.59,649.09,30.39Z"/><path class="cls-1" d="M60.79,354.39c7.4-16.1,12.6-54.2,12.6-98.7,0-59-17.3-117.8-28.6-117.8h-34v433h34V373.49h136.1V571h34V354.39Zm-16-.8a4.88,4.88,0,0,0,.3.7h-.3Z"/><path class="cls-3" d="M202.69,275.39s41,17,28,27-40-12-39-15-4-10-4-10Z"/><path class="cls-6" d="M166.69,141.39l13,12,3,35,10,37s17,35,14,42,3,9,3,9l-23,9s-25-28-25-34S166.69,141.39,166.69,141.39Z"/><path class="cls-7" d="M166.69,141.39l13,12,3,35,10,37s17,35,14,42,3,9,3,9l-23,9s-25-28-25-34S166.69,141.39,166.69,141.39Z"/><path class="cls-5" d="M289.69,501.39s-5,23-6,25,19,9,19,9l24-17s-10-22-10-26Z"/><path class="cls-2" d="M158.69,277.39l7,8s145,18,148,46,24,160,12,164-43,19-43,11-20-118-16-138c0,0-173-22-177-47s4-36,4-36Z"/><path class="cls-8" d="M158.69,277.39l7,8s145,18,148,46,24,160,12,164-43,19-43,11-20-118-16-138c0,0-173-22-177-47s4-36,4-36Z"/><path class="cls-2" d="M287.69,524.39s-4-9-6-6-9,38-2,38,71,16,80,14,26,1,24-9-12-11-12-11-37-22-39-33-13-5-13-5v7S298.69,535.39,287.69,524.39Z"/><path class="cls-9" d="M97.69,65.39s7,34-8,37,19,23,19,23l22,12,16-16s-14.5-29.5-3.5-51.5S97.69,65.39,97.69,65.39Z"/><path class="cls-3" d="M146.69,121.39l-16,16-22-12s-34-20-19-23c9.6-1.9,10.2-16.7,9.4-27a83,83,0,0,0-1.4-10s56.5-17.5,45.5,4.5a36.76,36.76,0,0,0-3.4,10.8C136.39,100.39,146.69,121.39,146.69,121.39Z"/><polygon class="cls-5" points="202.69 530.39 202.69 553.39 240.69 553.39 243.69 544.39 239.69 520.39 202.69 530.39"/><path class="cls-2" d="M45.69,297.39s0,59,24,61,110,13,110,13,5,98,14,130,1,34,9,36,42-5,41-12-5-184-5-184,9-38-111-56Z"/><path class="cls-2" d="M205.69,546.39s-6-13-7-9-13,39-1,42,50,19,75,18,28-2,28-2,7-10-2-16-46-41-48-45-17-7-17,0S212.69,555.39,205.69,546.39Z"/><path class="cls-8" d="M143.19,69.89a36.76,36.76,0,0,0-3.4,10.8c-5,3-8.3,2.2-14.6,2.2-9.3,0-13-11.9-19-18-.5-5.7-8.5.5-8.5.5S154.19,47.89,143.19,69.89Z"/><circle class="cls-3" cx="122.69" cy="49.39" r="33"/><path class="cls-7" d="M179.69,153.39s-5,36-8,49-7,73-9,81-14,10-38,7a34,34,0,0,0-4.5-.3c-14.8-.5-31.7,5.1-47.3,9.4-9,2.5-17.6,4.6-25.1,4.9-11.4.5-14.7-12.1-14.4-25.8.4-12.7,4-26.4,7.4-31.2,6.1-8.7.1-86.6,2.3-112.3h0c.3-3.9.9-6.6,1.7-7.7,6-8,45-28,49.4-27.2s41.6,24.2,41.6,24.2c9,0,8.7-9.8,8.7-9.8s6.3,11.8,18.3,14.8S179.69,153.39,179.69,153.39Z"/><path class="cls-3" d="M112.79,283s64.4,2.1,53.1,9.7-61.3,14.7-62.3,4.7S112.79,283,112.79,283Z"/><path class="cls-8" d="M120.09,290c.2,3.8-10.1,12.5-13.5,18.3-1.9,3.2-16.2-1-33.9-8.9a346.43,346.43,0,0,1-39.5-20.9c.4-12.7,4-26.4,7.4-31.2,6.1-8.7.1-86.6,2.3-112.3h0a8.65,8.65,0,0,1,1.7-.7h12c41,19-6,101-6,101s62,51,68,53A1.8,1.8,0,0,1,120.09,290Z"/><path class="cls-7" d="M56.69,128.39h-12s-11,3-20,23-42,82-13,106,91,52,95,45,18-18,12-20-68-53-68-53S97.69,147.39,56.69,128.39Z"/><path class="cls-2" d="M117.59,34s1.4-20,19.3-11.9,16.7-14.4,11.3-18.3-5.2-5-25-2.3-58.1,7.2-45.7,46.9,23.6,29.5,23.6,29.5-9.9-35.7.1-28.9l10,6.8,5.3-1.1Z"/><path class="cls-1" d="M854.79,322.69c0-18-134.1-32.7-299.6-32.7s-299.6,14.6-299.6,32.7c0,7,20.2,13.5,54.5,18.8v223.6h16.3V343.79c55,7.1,137,11.6,228.8,11.6,92.5,0,175.2-4.6,230.1-11.8v221.5h16.3V341.29C835.09,336,854.79,329.59,854.79,322.69Z"/><ellipse class="cls-10" cx="592.69" cy="308.39" rx="61" ry="15"/><ellipse class="cls-11" cx="592.69" cy="308.39" rx="50" ry="12.3"/><ellipse class="cls-10" cx="365.69" cy="320.39" rx="61" ry="15"/><ellipse class="cls-11" cx="365.69" cy="320.39" rx="50" ry="12.3"/><ellipse class="cls-12" cx="591.29" cy="302.69" rx="29.1" ry="4.6"/><ellipse class="cls-13" cx="575.79" cy="295.99" rx="9.2" ry="5"/><ellipse class="cls-5" cx="572.39" cy="295.99" rx="9.2" ry="5"/><ellipse class="cls-13" cx="612.49" cy="297.19" rx="9.2" ry="5"/><ellipse class="cls-5" cx="591.49" cy="295.99" rx="9.2" ry="5"/><ellipse class="cls-5" cx="607.19" cy="295.99" rx="9.2" ry="5"/><path class="cls-14" d="M619,293q-24.9,8.4-55.9,0v-.8a22.77,22.77,0,0,1,21.7-22.8c4.9-.2,9.9-.2,14.8,0A20.61,20.61,0,0,1,619,290Z"/><path class="cls-14" d="M610.89,314.09a189.56,189.56,0,0,1-36.9,0,11.81,11.81,0,0,1-10.6-11.7h58.2A12,12,0,0,1,610.89,314.09Z"/><path class="cls-11" d="M583.49,276.49a11.1,11.1,0,0,1-8.4,0A11.1,11.1,0,0,1,583.49,276.49Z"/><path class="cls-11" d="M591.89,280a11.1,11.1,0,0,1-8.4,0A10.25,10.25,0,0,1,591.89,280Z"/><path class="cls-11" d="M592.59,273.79a11.1,11.1,0,0,1-8.4,0A11.1,11.1,0,0,1,592.59,273.79Z"/><path class="cls-11" d="M608.29,273.79a11.1,11.1,0,0,1-8.4,0A11.1,11.1,0,0,1,608.29,273.79Z"/><path class="cls-11" d="M604.09,277.29a11.1,11.1,0,0,1-8.4,0A11.1,11.1,0,0,1,604.09,277.29Z"/><ellipse class="cls-12" cx="365.29" cy="314.69" rx="29.1" ry="4.6"/><ellipse class="cls-5" cx="349.79" cy="307.99" rx="9.2" ry="5"/><ellipse class="cls-13" cx="346.39" cy="307.99" rx="9.2" ry="5"/><ellipse class="cls-13" cx="386.49" cy="309.19" rx="9.2" ry="5"/><ellipse class="cls-13" cx="365.49" cy="307.99" rx="9.2" ry="5"/><ellipse class="cls-5" cx="381.19" cy="307.99" rx="9.2" ry="5"/><path class="cls-14" d="M393,305q-24.9,8.4-55.9,0v-.8a22.77,22.77,0,0,1,21.7-22.8c4.9-.2,9.9-.2,14.8,0A20.61,20.61,0,0,1,393,302Z"/><path class="cls-14" d="M384.89,326.09a189.56,189.56,0,0,1-36.9,0,11.81,11.81,0,0,1-10.6-11.7h58.2A12,12,0,0,1,384.89,326.09Z"/><path class="cls-11" d="M357.49,288.49a11.1,11.1,0,0,1-8.4,0A11.1,11.1,0,0,1,357.49,288.49Z"/><path class="cls-11" d="M365.89,292a11.1,11.1,0,0,1-8.4,0A10.25,10.25,0,0,1,365.89,292Z"/><path class="cls-11" d="M366.59,285.79a11.1,11.1,0,0,1-8.4,0A11.1,11.1,0,0,1,366.59,285.79Z"/><path class="cls-11" d="M382.29,285.79a11.1,11.1,0,0,1-8.4,0A11.1,11.1,0,0,1,382.29,285.79Z"/><path class="cls-11" d="M378.09,289.29a11.1,11.1,0,0,1-8.4,0A11.1,11.1,0,0,1,378.09,289.29Z"/><path class="cls-15" d="M645.19,304.29l.1,3.1.2,4s-18.5,1-22.2,5c-.1.1-.2.2-.2.3l-7.4-1.6v-3.6a1.24,1.24,0,0,1,.3-.2.35.35,0,0,1,.2-.1A66.16,66.16,0,0,1,645.19,304.29Z"/><path class="cls-13" d="M645.19,304.29l.1,3.1c-8.2.3-23.7,5.1-23.7,5.1l-5.7-1.3A69.59,69.59,0,0,1,645.19,304.29Z"/><path class="cls-16" d="M616.19,311.19l5.5,1.4,1.7,3.9c-.1.1-.2.2-.2.3l-7.4-1.6v-3.6a1.24,1.24,0,0,1,.3-.2C616,311.19,616.09,311.19,616.19,311.19Z"/><path class="cls-5" d="M422.19,317.29l.1,3.1.2,4s-18.5,1-22.2,5c-.1.1-.2.2-.2.3l-7.4-1.6v-3.6a1.24,1.24,0,0,1,.3-.2.35.35,0,0,1,.2-.1A66.16,66.16,0,0,1,422.19,317.29Z"/><path class="cls-17" d="M422.19,317.29l.1,3.1c-8.2.3-23.7,5.1-23.7,5.1l-5.7-1.3A69.59,69.59,0,0,1,422.19,317.29Z"/><path class="cls-16" d="M393.19,324.19l5.5,1.4,1.7,3.9c-.1.1-.2.2-.2.3l-7.4-1.6v-3.6a1.24,1.24,0,0,1,.3-.2C393,324.19,393.09,324.19,393.19,324.19Z"/><path class="cls-4" d="M756.29,211.49a20.3,20.3,0,0,0-5.4-3.8v-38.9a1.75,1.75,0,0,0-1.7-1.7h-9.6a1.75,1.75,0,0,0-1.7,1.7h0V207a17.42,17.42,0,0,0-11.9,16.5v83.4a7.6,7.6,0,0,0,7.6,7.6h20.6a7.6,7.6,0,0,0,7.6-7.6v-82.4A18.94,18.94,0,0,0,756.29,211.49Z"/><rect class="cls-13" x="725.89" y="235.79" width="35.8" height="47.4"/><path class="cls-13" d="M751.69,169.89h-.8V169a1.75,1.75,0,0,0-1.7-1.7h-9.6a1.75,1.75,0,0,0-1.7,1.7h0v.9h-.8v4h.8v20.4h13v-20.4h.8Z"/><path class="cls-11" d="M469.29,245.29a29.92,29.92,0,0,0-2-3.9c-16.1,4-26.8.6-28.5,0-.8,1.6-6,11.6-8.1,21.1-1.9,8.6-.8,14.4,3.3,17.2l.1.1h0c4.5,2.9,8.7,5.6,12.7,7.7a10.93,10.93,0,0,0,1.5.8h.1l1.5,2.1a7.6,7.6,0,0,1,1.5,4.1v42.9h-.3c-10.3.2-16.6,1.9-16.6,3.4s7.6,3.5,18.5,3.5,18.5-1.8,18.5-3.5c0-1.5-6.2-3.2-16.3-3.4h-.3l.3-39.7A17.08,17.08,0,0,1,457,290a7.46,7.46,0,0,1,.7-1.2l.6-.9v-.1h.1c.5-.3,1-.6,1.6-.9h.1c3.7-2.1,7.7-4.6,11.9-7.3,3.7-2.5,5-7.5,3.9-14.8C474.79,258,471.69,250.39,469.29,245.29Z"/><path class="cls-13" d="M470.29,278.89q-6.6,4.35-10.8,6.6h0a61.21,61.21,0,0,0-12.1.3c-2.8-1.6-6.7-3.9-11.4-7l-.1-.1h0c-4.3-3-4.4-9.3-3-15.7,3.6-.4,9.3-.2,17,2.5,9.1,3.2,18.6,1.4,24.1-.3C474.79,271,474.19,276.29,470.29,278.89Z"/><circle class="cls-13" cx="444.09" cy="259.49" r="1.2"/><circle class="cls-18" cx="440.69" cy="270.89" r="1.2"/><circle class="cls-13" cx="447.09" cy="262.49" r="0.7"/><circle class="cls-18" cx="450.09" cy="276.69" r="0.7"/><circle class="cls-18" cx="444.89" cy="277.39" r="0.7"/><circle class="cls-13" cx="460.09" cy="252.49" r="0.7"/><path class="cls-11" d="M527.69,204.79a29.92,29.92,0,0,0-2-3.9c-16.1,4-26.8.6-28.5,0-.8,1.6-6,11.6-8.1,21.1-1.9,8.6-.8,14.4,3.3,17.2l.1.1h0c4.5,2.9,8.7,5.6,12.7,7.7a10.93,10.93,0,0,0,1.5.8h.1l1.5,2.1a7.6,7.6,0,0,1,1.5,4.1v42.9h-.3c-10.3.2-16.6,1.9-16.6,3.4s7.6,3.5,18.5,3.5,18.5-1.8,18.5-3.5c0-1.5-6.2-3.2-16.3-3.4h-.3l.3-39.7a17.08,17.08,0,0,1,1.8-7.7,7.46,7.46,0,0,1,.7-1.2l.6-.9v-.1h.1c.5-.3,1-.6,1.6-.9h.1c3.7-2.1,7.7-4.6,11.9-7.3,3.7-2.5,5-7.5,3.9-14.8C533.19,217.49,530.09,209.89,527.69,204.79Z"/><path class="cls-13" d="M528.69,238.39q-6.6,4.35-10.8,6.6h0a61.21,61.21,0,0,0-12.1.3c-2.8-1.6-6.7-3.9-11.4-7l-.1-.1h0c-4.3-3-4.4-9.3-3-15.7,3.6-.4,9.3-.2,17,2.5,9.1,3.2,18.6,1.4,24.1-.3C533.19,230.59,532.59,235.79,528.69,238.39Z"/><circle class="cls-13" cx="502.49" cy="218.99" r="1.2"/><circle class="cls-18" cx="498.99" cy="230.49" r="1.2"/><circle class="cls-13" cx="505.49" cy="221.99" r="0.7"/><circle class="cls-18" cx="508.49" cy="236.19" r="0.7"/><circle class="cls-18" cx="503.29" cy="236.89" r="0.7"/><circle class="cls-13" cx="518.39" cy="212.09" r="0.7"/></g></g></svg>