<svg xmlns="http://www.w3.org/2000/svg" viewBox="0 0 19.65 19.65"><defs><style>.cls-1{fill:#99bbe0;}.cls-2{fill:#33ffd0;}</style></defs><g id="Livello_2" data-name="Livello 2"><g id="Livello_1-2" data-name="Livello 1"><path class="cls-1" d="M2.81,5.61a1.4,1.4,0,0,1,1.4-1.4H15.44a1.4,1.4,0,0,1,1.4,1.4V8.42a1.4,1.4,0,0,1-1.4,1.4H4.21a1.4,1.4,0,0,1-1.4-1.4Zm12.63,0H4.21V8.42H15.44Z"/><path class="cls-2" d="M12.63,11.23a1.39,1.39,0,0,0-1.4,1.4V14a1.4,1.4,0,0,0,1.4,1.41h2.81A1.41,1.41,0,0,0,16.84,14v-1.4a1.4,1.4,0,0,0-1.4-1.4Zm0,1.4h2.81V14H12.63Z"/><path class="cls-2" d="M2.81,11.93a.7.7,0,0,1,.7-.7H9.12a.7.7,0,0,1,0,1.4H3.51A.7.7,0,0,1,2.81,11.93Z"/><path class="cls-1" d="M3.51,14a.71.71,0,0,0,0,1.41H9.12a.71.71,0,0,0,0-1.41Z"/><path class="cls-2" d="M15.44,0H4.21A4.2,4.2,0,0,0,0,4.21V15.44a4.21,4.21,0,0,0,4.21,4.21H15.44a4.22,4.22,0,0,0,4.21-4.21V4.21A4.21,4.21,0,0,0,15.44,0Zm2.8,15.44a2.8,2.8,0,0,1-2.8,2.8H4.21a2.8,2.8,0,0,1-2.81-2.8V4.21A2.81,2.81,0,0,1,4.21,1.4H15.44a2.8,2.8,0,0,1,2.8,2.81Z"/></g></g></svg>