<svg xmlns="http://www.w3.org/2000/svg" viewBox="0 0 20.28 20.28"><defs><style>.cls-1{fill:#33ffd0;}.cls-2{fill:#99bbe0;}</style></defs><g id="Livello_2" data-name="Livello 2"><g id="Livello_1-2" data-name="Livello 1"><path class="cls-1" d="M15.67,0H.92A.92.92,0,0,0,0,.92V15.67a.92.92,0,0,0,.92.92H15.67a.92.92,0,0,0,.92-.92V.92A.92.92,0,0,0,15.67,0Zm-.92,13.83a.92.92,0,0,1-.92.92H2.77a.93.93,0,0,1-.93-.92V2.77a.93.93,0,0,1,.93-.93H13.83a.93.93,0,0,1,.92.93Z"/><path class="cls-2" d="M17.52,18.44H4.61a.92.92,0,0,0-.92.92h0a.92.92,0,0,0,.92.92H19.36a.92.92,0,0,0,.92-.92V4.61a.92.92,0,0,0-.92-.92h0a.92.92,0,0,0-.92.92V17.52A.92.92,0,0,1,17.52,18.44Z"/><rect class="cls-2" x="3.69" y="3.69" width="9.22" height="1.84" rx="0.92"/><rect class="cls-1" x="3.69" y="7.38" width="9.22" height="1.84" rx="0.92"/><rect class="cls-1" x="3.69" y="11.06" width="6.45" height="1.84" rx="0.92"/></g></g></svg>