<svg xmlns="http://www.w3.org/2000/svg" width="1031" height="649.97" viewBox="0 0 1031 649.97">
  <defs>
    <style>
      .cls-1 {
        fill: #3f3d56;
      }

      .cls-2 {
        fill: #007bff;
      }

      .cls-3 {
        fill: #f2f2f2;
      }

      .cls-4 {
        fill: #0d8680;
      }

      .cls-5 {
        fill: #2f2e41;
      }

      .cls-6 {
        fill: #fbbebe;
      }

      .cls-7 {
        fill: #575a89;
      }

      .cls-8 {
        opacity: 0.4;
        isolation: isolate;
      }

      .cls-9 {
        fill: #12b2ab;
      }

      .cls-10 {
        fill: #669ad1;
      }
    </style>
  </defs>
  <g id="Livello_2" data-name="Livello 2">
    <g id="a52ce8ac-7708-4c6b-8f08-fc4d288bf8bf">
      <rect class="cls-1" y="519.3" width="1031" height="2"/>
      <rect class="cls-2" x="550" y="223.3" width="384" height="368"/>
      <rect class="cls-1" x="522" y="590.3" width="475" height="2"/>
      <rect class="cls-3" x="665.82" y="359.99" width="110.15" height="128.33"/>
      <path class="cls-1" d="M818.75,489.39h-154v-154h154Zm-151.86-2.14H816.61V337.53H666.89Z"/>
      <rect class="cls-1" x="696.83" y="380.31" width="94.11" height="2.14"/>
      <rect class="cls-1" x="696.83" y="403.84" width="94.11" height="2.14"/>
      <rect class="cls-1" x="696.83" y="427.36" width="94.11" height="2.14"/>
      <rect class="cls-1" x="440.45" y="74.3" width="457.55" height="2"/>
      <rect class="cls-1" x="96" y="403.3" width="251" height="2"/>
      <rect class="cls-4" x="13" y="157.3" width="361" height="223"/>
      <rect class="cls-3" x="61" y="225.13" width="222" height="110.17"/>
      <path class="cls-1" d="M328,336.3H60v-134H328Zm-266-2H326v-130H62Z"/>
      <rect class="cls-1" x="100.03" y="258.22" width="143.94" height="2"/>
      <rect class="cls-1" x="100.03" y="279.22" width="143.94" height="2"/>
      <rect class="cls-1" x="100.03" y="300.22" width="143.94" height="2"/>
      <path class="cls-5" d="M467.24,152.9c-11.6-19.61-34.57-20.53-34.57-20.53s-22.37-2.86-36.73,27c-13.38,27.84-31.84,54.72-3,61.24l5.22-16.23,3.23,17.44a115.64,115.64,0,0,0,12.35.21c30.92-1,60.36.29,59.42-10.8C471.93,196.49,478.41,171.77,467.24,152.9Z"/>
      <path class="cls-6" d="M425.45,189.83s15,21,6,38,21,35,21,35l22-48s-26-17-19-33Z"/>
      <circle class="cls-6" cx="435.45" cy="172.83" r="26"/>
      <path class="cls-6" d="M345.47,202.89l21.72-28s7.65-29.38,18.74-27.89-4.38,35.24-4.38,35.24l-21.59,31Z"/>
      <polygon class="cls-6" points="455.44 575.83 462.44 612.83 477.44 616.83 473.44 572.83 455.44 575.83"/>
      <polygon class="cls-6" points="606.45 535.83 633.45 572.83 644.45 577.83 653.45 562.83 626.45 527.83 606.45 535.83"/>
      <path class="cls-7" d="M449.45,246.83l-16.69-22s-32.31,6-35.31,9,8,58,8,58,2,15,11,23l9,6,74-15,2.78-32.92a86.43,86.43,0,0,0-22.78-66.08h0l-12.88,1.76Z"/>
      <path class="cls-7" d="M401.45,235.83l-5-2-23-2s-8-2-6-6,4-5,0-6-5-2-4-5,7-9,7-9l-17-14s-.92.65-2.41,1.86c-8.44,6.83-35.15,31.49-15.59,56.14,23,29,50,46,72,40Z"/>
      <path class="cls-5" d="M423.45,315.83v14s-9,17-6,33,4,24,4,24a136.12,136.12,0,0,0,7,40c7,20-16,151,13,153s45,4,54-6-15-182-15-182,82,171,99,164,60-23,55-32-131-209-131-209l-4-9Z"/>
      <path class="cls-5" d="M471.45,605.83s-16-1-16,4-8,22-8,22-6,20,10,18,26-20,26-20l-4-19Z"/>
      <path class="cls-5" d="M638.45,570.83s-14-9-13-3,2,22,9,23,28,7,29,9,25,10,25-3-15-23-15-23l-17-13s-11-1-13,6S638.45,570.83,638.45,570.83Z"/>
      <circle class="cls-5" cx="435.48" cy="132.47" r="16.6"/>
      <path class="cls-5" d="M417.13,128.1A16.61,16.61,0,0,1,432,111.59a17,17,0,0,0-1.75-.09,16.61,16.61,0,1,0,0,33.21h0a17,17,0,0,0,1.75-.1A16.6,16.6,0,0,1,417.13,128.1Z"/>
      <polygon class="cls-5" points="462.11 151.01 439.43 139.13 408.1 143.99 401.62 172.61 417.75 171.99 422.26 161.48 422.26 171.82 429.7 171.53 434.02 154.79 436.73 172.61 463.19 172.07 462.11 151.01"/>
      <path class="cls-6" d="M460.75,318.15l-35,1s-29.86,5.8-28.18-6.25,30.8-7.83,30.8-7.83l31.88-4.86Z"/>
      <path class="cls-7" d="M488.44,205.14a7.46,7.46,0,0,1,8.23,5.13c6.85,21.58,27.95,93.81,7,103.72-24.7,11.67-42.72,11.16-42.72,11.16L451.3,301.4l8.78-8.24,9.37-60.28,4.5-25.55Z"/>
      <polygon class="cls-8" points="481.94 245.33 477.94 285.33 442.94 300.33 481.94 291.33 481.94 245.33"/>
      <path class="cls-9" d="M261.37,485.07c-5.69,21-25.16,34-25.16,34S226,498.05,231.64,477s25.16-34,25.16-34S267.05,464.06,261.37,485.07Z"/>
      <path class="cls-10" d="M209.65,485.07c5.68,21,25.16,34,25.16,34s10.25-21.05,4.57-42.07-25.16-34-25.16-34S204,464.06,209.65,485.07Z"/>
      <path class="cls-1" d="M218,480.56c15.6,15.18,17.51,38.53,17.51,38.53s-23.39-1.28-39-16.47S179,464.09,179,464.09,202.4,465.37,218,480.56Z"/>
      <path class="cls-1" d="M253,480.56c-15.6,15.18-17.5,38.53-17.5,38.53s23.38-1.28,39-16.47S292,464.09,292,464.09,268.61,465.37,253,480.56Z"/>
      <path class="cls-10" d="M690.37,42.07c-5.69,21-25.16,34-25.16,34S655,55.05,660.64,34,685.8,0,685.8,0,696.05,21.06,690.37,42.07Z"/>
      <path class="cls-9" d="M638.65,42.07c5.68,21,25.16,34,25.16,34s10.25-21,4.57-42.07S643.22,0,643.22,0,633,21.06,638.65,42.07Z"/>
      <path class="cls-1" d="M647,37.56c15.6,15.18,17.51,38.53,17.51,38.53s-23.39-1.28-39-16.47S608,21.09,608,21.09,631.4,22.37,647,37.56Z"/>
      <path class="cls-1" d="M682,37.56c-15.6,15.18-17.5,38.53-17.5,38.53s23.38-1.28,39-16.47S721,21.09,721,21.09,697.61,22.37,682,37.56Z"/>
    </g>
  </g>
</svg>
