<svg xmlns="http://www.w3.org/2000/svg" width="705.62" height="714.23" viewBox="0 0 705.62 714.23">
  <defs>
    <style>
      .cls-1 {
        fill: #e6e6e6;
      }

      .cls-2 {
        fill: #007bff;
      }

      .cls-3 {
        opacity: 0.2;
      }

      .cls-3, .cls-9 {
        isolation: isolate;
      }

      .cls-4 {
        fill: #fff;
      }

      .cls-5 {
        fill: #0d8680;
      }

      .cls-6 {
        fill: #575a89;
      }

      .cls-7 {
        fill: #ffb9b9;
      }

      .cls-8 {
        fill: #2f2e41;
      }

      .cls-9 {
        opacity: 0.1;
      }
    </style>
  </defs>
  <g id="Livello_2" data-name="Livello 2">
    <g id="aee07f99-5223-45c5-8204-b56b0229636c">
      <ellipse class="cls-1" cx="153.76" cy="699.23" rx="92.34" ry="15"/>
      <polygon class="cls-1" points="705.62 632.28 334.02 554.86 334.02 193.94 705.62 0 705.62 632.28"/>
      <polygon class="cls-2" points="704.72 37.9 333.12 215.76 333.12 194.84 704.72 1.23 704.72 37.9"/>
      <path class="cls-1" d="M350.26,197.55c0,4.81-1.63,9.5-3.61,10.45s-3.56-2.13-3.56-6.88,1.59-9.41,3.56-10.43S350.26,192.74,350.26,197.55Z"/>
      <path class="cls-1" d="M364.69,190.35c0,4.68-1.63,9.25-3.61,10.2s-3.56-2-3.56-6.66,1.59-9.17,3.56-10.17S364.69,185.67,364.69,190.35Z"/>
      <path class="cls-1" d="M379.12,183.13c0,4.68-1.62,9.25-3.61,10.2s-3.56-2-3.56-6.65,1.59-9.17,3.56-10.18S379.12,178.45,379.12,183.13Z"/>
      <polygon class="cls-3" points="609.15 281.46 380.06 333.87 380.06 267.03 609.15 186.04 609.15 281.46"/>
      <polygon class="cls-4" points="604.6 276.91 375.51 329.32 375.51 262.48 604.6 181.49 604.6 276.91"/>
      <path class="cls-3" d="M417.92,287.85c0,10.77-4.07,20.54-9,21.81s-8.74-6.23-8.74-16.66,3.88-20.15,8.74-21.73S417.92,277.08,417.92,287.85Z"/>
      <path class="cls-5" d="M415.19,285.12c0,10.77-4.07,20.54-9,21.81s-8.75-6.22-8.75-16.66,3.88-20.15,8.75-21.73S415.19,274.36,415.19,285.12Z"/>
      <polygon class="cls-1" points="549.58 246.93 439.55 278.7 439.55 267.46 549.58 233.62 549.58 246.93"/>
      <polygon class="cls-1" points="524.33 279.1 459.39 295.49 459.39 283.87 524.33 266.26 524.33 279.1"/>
      <polygon class="cls-3" points="609.15 520.47 380.06 501.27 380.06 367.14 609.15 328.9 609.15 520.47"/>
      <polygon class="cls-4" points="603.7 515.93 374.61 496.72 374.61 362.6 603.7 324.35 603.7 515.93"/>
      <polygon class="cls-3" points="412.5 400.49 401.78 401.49 401.78 389.77 412.5 388.55 412.5 400.49"/>
      <polygon class="cls-5" points="410.69 398.68 399.96 399.68 399.96 387.95 410.69 386.73 410.69 398.68"/>
      <polygon class="cls-1" points="549.58 385.46 421.51 397.44 421.51 386.54 549.58 372.15 549.58 385.46"/>
      <polygon class="cls-1" points="549.58 428.91 421.51 433.06 421.51 422.15 549.58 415.61 549.58 428.91"/>
      <polygon class="cls-1" points="549.58 473.47 421.51 469.58 421.51 458.67 549.58 460.16 549.58 473.47"/>
      <polygon class="cls-6" points="143.36 329.25 118.85 329.25 118.85 317.24 139.36 317.24 143.86 319.75 143.36 329.25"/>
      <polygon class="cls-7" points="100.84 659.9 101.84 677.91 116.85 674.91 114.35 656.9 100.84 659.9"/>
      <path class="cls-7" d="M171.88,650.4s.5,15-1,19,4,6,4,6h12l7,1v-7.5s-8-12.51-8-19.51S171.88,650.4,171.88,650.4Z"/>
      <path class="cls-8" d="M103.34,674.91s10-4.73,13.51-1.86,16.51,27.37,11.51,28.87c0,0-3.51,6-15.51,2s-12-8.5-12-8.5-3.5-3-3.5-4,1.5-10,1.5-10,1.11-7.53,2.81-7Z"/>
      <path class="cls-8" d="M172.88,667.41s-1.5-1.5-2.5,0-6.51,20.51-1.51,21.51,12.51,4.5,13.51,3.5a13.51,13.51,0,0,0,2-3.5s8,3.5,10.51,6.5,32.51,9.5,31.51,0-16-17.51-16-17.51l-16.5-11s-6.51.5-8,3.5S173.88,672.91,172.88,667.41Z"/>
      <path class="cls-6" d="M26.31,473.82s-5.5,7-4.5,7.5,23,5.5,35,2.5,37-2.5,38.52-6,20-47,20-47l-6-33-6.51-8.5-15-13-30,56Z"/>
      <path class="cls-9" d="M26.31,473.82s-5.5,7-4.5,7.5,23,5.5,35,2.5,37-2.5,38.52-6,20-47,20-47l-6-33-6.51-8.5-15-13-30,56Z"/>
      <path class="cls-8" d="M89.84,461.81s-7,25,0,59.53.5,42,2,43.52,2,1,2,2.5,1.5,8.5,0,11-1.5,82,3,84,17.51,7,20,0,.5-57.52,1.5-60,1-8.51,1-10,3-18.51,3.5-23,2-13.51,2-13.51-1-35.51,2-46,4-11.5,4-11.5l24,62.53s-2,6.5,0,8.5-.5,1.5,1.5,5,4,4.5,4,6.51-2,2-1,3.5,2.5,7,2.5,7l-2.5,6s1.5,12.51,3.5,20,2,38,4.5,38.52,22,6,22-5.5-1.5-61.53-1.5-61.53-3-7.5-3-9.5-.5-3,.5-4,2-3,.5-4.5-1-3.5-1-5.5a43.12,43.12,0,0,0-1-8c-.5-2-10-64.53-10-64.53s2-7.51,0-8-2-4.5-2-6.5,5-27-1-27S89.84,461.81,89.84,461.81Z"/>
      <path class="cls-7" d="M23.81,431.8l-7,3.5s-25,13.5-14,21,22-10.51,22-10.51l10.5-8Z"/>
      <path class="cls-7" d="M121.35,294.73s-2,23-12.5,28-3.5,42.52-3.5,42.52l14.5,14,25.51-7.5,3-17,2.5-17.51-6-9s-7.5-2-4.5-22S121.35,294.73,121.35,294.73Z"/>
      <path class="cls-2" d="M106.35,330.75s11.5,38,19.5,38,12.51-9,13.51-20,7.5-23,7.5-23l15.51,14s12.51,110.56,11.51,113.56-40,6.5-55.53,11-31,1-31-1.5c0-2.23,7.93-21.52,1.89-35.6a59.19,59.19,0,0,1-4.43-15.76c-.93-7.41-1.8-16.39-1-19.17,1.5-5,9.5-58,9.5-58Z"/>
      <path class="cls-6" d="M114.82,317s-9,4.8-13,6.8-28.51,8-29,11,3.5,45,1.5,49.52-22,44.53-22,44.53l-1,8.5s-33,39.52-29,44,19-14,19-14,33.51-53.52,34.51-55.52,21.51-39,24.51-40,10-43,11-45S116.28,316.15,114.82,317Z"/>
      <path class="cls-6" d="M75.33,334.25h-3s-11,42-14,47.52-3.5,14.51-4,16-2.5,1-3,4.5-5.5,8-9.5,10-22,19-21.51,19.51,6,18,9.5,18,17.51-17,19-17,8-6,9-6.51,26.52-47.52,25.52-59S75.33,334.25,75.33,334.25Z"/>
      <path class="cls-7" d="M200.15,463.85l6.16,4.83s21.8,18.23,9.52,23.39-19.47-14.7-19.47-14.7l-8.69-9.94Z"/>
      <path class="cls-6" d="M139.75,317.54s6.61,3.21,9.62,5.71,26,9,26,11-2.5,33-2.5,33l3.5,55s5,62,6,63.53,2.5,9.51,0,9.51-15-14-14.51-21,4-23,.5-27-20-71-20-75-7-44-6.51-45S139.75,317.54,139.75,317.54Z"/>
      <path class="cls-6" d="M167.87,333.75l7.51.5,18.51,75.54s1.5,9.5,2,10.5,8,44.52,5,46-13,7-13.51,3.5-5.5-23-10.5-27.51-10-82-10-82Z"/>
      <circle class="cls-7" cx="137.86" cy="287.73" r="20.51"/>
      <path class="cls-8" d="M123.55,289.23c1.3-.67,3,0,4.22,1.42a20,20,0,0,1,29.1-13.53V275a17.32,17.32,0,0,0-17.32-17.32h-4.16a32.54,32.54,0,0,0-32.55,32.54h0v5.8a29.19,29.19,0,0,0,16,26l18.73-9.92a20,20,0,0,1-10-14.87c-1.58.69-3.7-.43-4.81-2.58S122,290.05,123.55,289.23Z"/>
    </g>
  </g>
</svg>
