<svg xmlns="http://www.w3.org/2000/svg" width="1056.43" height="607.53" viewBox="0 0 1056.43 607.53">
  <defs>
    <style>
      .cls-1 {
        fill: #0d8680;
      }

      .cls-2 {
        fill: #99bbe0;
      }

      .cls-3 {
        fill: #d0cde1;
      }

      .cls-4 {
        fill: #3f3d56;
      }

      .cls-5 {
        fill: #007bff;
      }

      .cls-6 {
        fill: #2f2e41;
      }

      .cls-7 {
        fill: #ffb8b8;
      }

      .cls-8 {
        fill: #575a89;
      }

      .cls-9 {
        fill: #ccddf0;
      }
    </style>
  </defs>
  <g id="Livello_2" data-name="Livello 2">
    <g id="aacf679f-7774-484d-919c-70dbfadaa690">
      <rect class="cls-1" x="298.53" y="63.17" width="757.9" height="492.41"/>
      <rect class="cls-2" x="275.57" y="60.41" width="57.88" height="497"/>
      <rect class="cls-3" x="444.6" y="197.29" width="151.58" height="1.84"/>
      <path class="cls-3" d="M941.6,463.71H733.06V269H941.6Zm-206.7-1.84H939.76V270.79H734.9Z"/>
      <rect class="cls-3" x="836.41" y="224.96" width="1.84" height="282.74" transform="translate(-1.8 728.51) rotate(-46.97)"/>
      <rect class="cls-3" x="695.96" y="365.41" width="282.74" height="1.84" transform="translate(-24.77 669.81) rotate(-43.02)"/>
      <rect class="cls-3" x="444.6" y="332.34" width="214.05" height="1.84"/>
      <rect class="cls-3" x="444.6" y="365.41" width="214.05" height="1.84"/>
      <rect class="cls-3" x="444.6" y="398.48" width="214.05" height="1.84"/>
      <circle class="cls-4" cx="622.89" cy="19.41" r="19.41"/>
      <circle class="cls-5" cx="677.48" cy="19.41" r="19.41"/>
      <circle class="cls-3" cx="732.07" cy="19.41" r="19.41"/>
      <circle class="cls-6" cx="134.88" cy="213.2" r="12.77"/>
      <ellipse class="cls-6" cx="161.85" cy="171.1" rx="36.65" ry="40.21"/>
      <path class="cls-6" d="M136.06,344l-.94,4.73s-2.84,2.84-1.42,4.26.94,8,.94,8l-2.84,18.45-16.55,74.74s-21.76,14.19-38.79,42.1-17.5,35-17.5,35l18.92,8,47.3-57.23s13.25-8.05,18-15.14,34.06-80.42,34.06-80.42l16.55,76.63s-.94,27.91,3.31,45.89a192.3,192.3,0,0,1,4.74,34.53l22.23-2.36s-1.42-67.18-3.79-74.27c0,0,9.94-81.84-9.93-114.48L198.5,304.74l-19.86-.95Z"/>
      <path class="cls-6" d="M81.66,537.47,58,522.81,47.13,543.62S23,558.29,28.21,569.17s9.93,13.71,9.93,13.71l3.31-1.41,6.15,11.35S63.69,616,89.7,604.17a9.5,9.5,0,0,0,0-11.35c-4.25-6.15-15.13-19.4-15.13-19.4Z"/>
      <path class="cls-6" d="M226.41,538l-26,1.89,2.83,21.28s-12.29,30.28-3.78,32.64a124.08,124.08,0,0,0,18.45,3.32l.94-3.32s36.43,19.87,49.67,5.21c0,0,2.84-10.41-5.2-13.72s-23.65-10.41-25.54-14.19S226.41,538,226.41,538Z"/>
      <circle class="cls-7" cx="163.03" cy="177.49" r="22.71"/>
      <path class="cls-7" d="M146,191.21s2.83,18.44-11.36,25.54S172,232.36,172,232.36s-8-12.3-6.62-16.56,8.52-21.28,8.52-21.28Z"/>
      <path class="cls-8" d="M142.21,217.22s-13.72-8-18.45-4.25-6.15,119.68,10.88,124.41l.48,6.15s-6.15,2.83-.48,2.83,32.17-19.39,33.12-26.49,28.38-8.51,28.38-8.51,7.09,30.27,9.46,29.33S208,319.4,207,316.56s10.88-11.82,7.57-17.5S202.29,274,202.29,274s.94-12.3-11.83-23.65c0,0-3.73-21.13-20.55-21.45S142.21,217.22,142.21,217.22Z"/>
      <polygon class="cls-6" points="140.42 149.85 140.42 175.81 146.43 175.81 154.08 167.61 153.05 175.81 179.62 175.81 177.98 167.61 181.26 175.81 185.5 175.81 185.5 149.85 140.42 149.85"/>
      <rect class="cls-9" y="382.41" width="196" height="179"/>
      <path class="cls-5" d="M116.06,475.62c-16.52,27-10.84,60.53-10.84,60.53s32.47-10.18,49-37.16,10.84-60.53,10.84-60.53S132.58,448.64,116.06,475.62Z"/>
      <path class="cls-3" d="M104.55,536.37l-.94-.15c-.34-.05-34.16-5.66-54.41-29.89s-19.77-58.5-19.76-58.84l0-1,.94.15c.34.06,34.16,5.66,54.41,29.89h0c20.25,24.23,19.76,58.5,19.76,58.85Z"/>
      <circle class="cls-4" cx="106.25" cy="430.48" r="18.26"/>
      <path class="cls-7" d="M106.73,332.65l5.68,42.1s-3.31,36.89,9.46,37.37,4.73-37.85,4.73-37.85L125.18,336S114.78,318.93,106.73,332.65Z"/>
      <path class="cls-8" d="M128,215.8s-3.31-9-10.41-1.89-13.24,25.55-13.24,36.9,1.42,77.1,1.42,77.1-7.57,2.84-2.37,7.1,12.3-2.36,12.3-2.36,9.46,6.62,10.41,6.62.47-8,.47-8,4.73-12.3,3.79-21.76S128,215.8,128,215.8Z"/>
      <path class="cls-3" d="M941.6,171.57H443.68v-34H941.6Zm-496.08-1.84H939.76V139.42H445.52Z"/>
      <path class="cls-3" d="M52,431.41H3c3.78-15.22,3.33-31.69,0-49H52A60.91,60.91,0,0,0,52,431.41Z"/>
      <rect class="cls-4" x="10.42" y="392.8" width="29.7" height="5.94"/>
      <rect class="cls-4" x="10.42" y="404.68" width="29.7" height="5.94"/>
      <rect class="cls-4" x="10.42" y="416.56" width="29.7" height="5.94"/>
      <path class="cls-3" d="M493,239.41H444c3.78-15.22,3.33-31.69,0-49h49A60.91,60.91,0,0,0,493,239.41Z"/>
      <rect class="cls-4" x="451.42" y="200.8" width="29.7" height="5.94"/>
      <rect class="cls-4" x="451.42" y="212.68" width="29.7" height="5.94"/>
      <rect class="cls-4" x="451.42" y="224.56" width="29.7" height="5.94"/>
      <path class="cls-3" d="M862,313.41H813c3.78-15.22,3.33-31.69,0-49h49A60.91,60.91,0,0,0,862,313.41Z"/>
      <rect class="cls-4" x="820.42" y="274.8" width="29.7" height="5.94"/>
      <rect class="cls-4" x="820.42" y="286.68" width="29.7" height="5.94"/>
      <rect class="cls-4" x="820.42" y="298.56" width="29.7" height="5.94"/>
      <path class="cls-3" d="M925,208.41H876c3.78-15.22,3.33-31.69,0-49h49A60.91,60.91,0,0,0,925,208.41Z"/>
      <rect class="cls-4" x="883.42" y="169.8" width="29.7" height="5.94"/>
      <rect class="cls-4" x="883.42" y="181.68" width="29.7" height="5.94"/>
      <rect class="cls-4" x="883.42" y="193.56" width="29.7" height="5.94"/>
      <path class="cls-4" d="M317.5,263.91h-26v-26h26Zm-24-2h22v-22h-22Z"/>
      <path class="cls-4" d="M318,321.91H292v-26h26Zm-24-2h22v-22H294Z"/>
      <path class="cls-4" d="M318.5,379.91h-26v-26h26Zm-24-2h22v-22h-22Z"/>
      <circle class="cls-5" cx="293" cy="354.41" r="8"/>
    </g>
  </g>
</svg>
