<svg xmlns="http://www.w3.org/2000/svg" xmlns:xlink="http://www.w3.org/1999/xlink" width="971.44" height="502" viewBox="0 0 971.44 502">
  <defs>
    <style>
      .cls-1 {
        opacity: 0.7;
      }

      .cls-2 {
        fill: url(#Sfumatura_senza_nome_4);
      }

      .cls-3 {
        fill: #bdbdbd;
      }

      .cls-19, .cls-4 {
        opacity: 0.1;
      }

      .cls-5 {
        fill: #535461;
      }

      .cls-6 {
        opacity: 0.5;
      }

      .cls-7 {
        fill: url(#Sfumatura_senza_nome_4-2);
      }

      .cls-8 {
        fill: #fff;
      }

      .cls-9 {
        fill: #99bbe0;
      }

      .cls-10 {
        fill: #e0e0e0;
      }

      .cls-11, .cls-13, .cls-15, .cls-18 {
        fill: none;
        stroke-miterlimit: 10;
      }

      .cls-11 {
        stroke: #6c63ff;
        stroke-width: 2px;
      }

      .cls-12 {
        fill: #6c63ff;
      }

      .cls-13 {
        stroke: #fff;
      }

      .cls-14 {
        fill: url(#Sfumatura_senza_nome_4-3);
      }

      .cls-15, .cls-18 {
        stroke: #535461;
      }

      .cls-15 {
        stroke-width: 3px;
        opacity: 0.6;
      }

      .cls-15, .cls-18, .cls-19 {
        isolation: isolate;
      }

      .cls-16 {
        fill: #007bff;
      }

      .cls-17 {
        fill: #12b2ab;
      }

      .cls-18 {
        opacity: 0.3;
      }

      .cls-20 {
        fill: url(#Sfumatura_senza_nome_4-4);
      }

      .cls-21 {
        fill: #f55f44;
      }
    </style>
    <linearGradient id="Sfumatura_senza_nome_4" data-name="Sfumatura senza nome 4" x1="599.5" y1="-164.06" x2="599.5" y2="305" gradientTransform="matrix(1, 0, 0, -1, -114.28, 305)" gradientUnits="userSpaceOnUse">
      <stop offset="0" stop-color="gray" stop-opacity="0.25"/>
      <stop offset="0.54" stop-color="gray" stop-opacity="0.12"/>
      <stop offset="1" stop-color="gray" stop-opacity="0.1"/>
    </linearGradient>
    <linearGradient id="Sfumatura_senza_nome_4-2" x1="485.72" y1="245.12" x2="485.72" y2="432.88" gradientTransform="matrix(1, 0, 0, -1, 0, 504)" xlink:href="#Sfumatura_senza_nome_4"/>
    <linearGradient id="Sfumatura_senza_nome_4-3" x1="132" y1="-10.96" x2="302.99" y2="-10.96" xlink:href="#Sfumatura_senza_nome_4"/>
    <linearGradient id="Sfumatura_senza_nome_4-4" x1="933" y1="-64.28" x2="1030.96" y2="-64.28" xlink:href="#Sfumatura_senza_nome_4"/>
  </defs>
  <g id="Livello_2" data-name="Livello 2">
    <g id="a622e68e-7a65-46e9-94a9-d455de519afc">
      <g>
        <g class="cls-1">
          <path class="cls-2" d="M738.41,0H232a16.36,16.36,0,0,0-16.31,16.42V364.94A16.36,16.36,0,0,0,232,381.36H406.19v60.16h-7.94a8.31,8.31,0,0,0-8.27,8.33h0v12.07h16.21v7.14H564.25v-7.14h16.21V449.85a8.31,8.31,0,0,0-8.27-8.33h-7.47V441h-.51V381.36h174.2a16.36,16.36,0,0,0,16.31-16.42V16.42A16.36,16.36,0,0,0,738.41,0Z"/>
        </g>
        <rect class="cls-3" x="407.72" y="371" width="156" height="92"/>
        <g class="cls-4">
          <path d="M410.79,380H561c1.81-7.87,3.26-13,3.26-13h-157S408.83,372.11,410.79,380Z"/>
        </g>
        <path class="cls-5" d="M235.82,3h499.8a16.1,16.1,0,0,1,16.1,16.1V327h-532V19.1A16.1,16.1,0,0,1,235.82,3Z"/>
        <path class="cls-3" d="M735.62,377H235.82a16.1,16.1,0,0,1-16.1-16.1V327h532v33.9A16.1,16.1,0,0,1,735.62,377Z"/>
        <circle class="cls-5" cx="485.72" cy="352" r="9"/>
        <path class="cls-3" d="M399.89,436H571.55a8.17,8.17,0,0,1,8.17,8.17V456h-188V444.17a8.17,8.17,0,0,1,8.17-8.17Z"/>
        <g class="cls-6">
          <rect class="cls-7" x="320.72" y="71.12" width="330" height="187.76" rx="4.5"/>
        </g>
        <rect class="cls-8" x="324.95" y="72.5" width="321.54" height="183.96" rx="4.5"/>
        <rect class="cls-9" x="414.52" y="98.91" width="35.44" height="31.9" rx="4.5"/>
        <rect class="cls-10" x="460.59" y="98.91" width="95.69" height="3.54" rx="1.77"/>
        <rect class="cls-10" x="460.59" y="109.55" width="79.54" height="3.54" rx="1.77"/>
        <rect class="cls-9" x="414.52" y="148.53" width="35.44" height="31.9" rx="4.5"/>
        <path class="cls-10" d="M462.36,148.53h92.15a1.77,1.77,0,0,1,1.77,1.77h0a1.77,1.77,0,0,1-1.77,1.77H462.36a1.77,1.77,0,0,1-1.77-1.77h0A1.77,1.77,0,0,1,462.36,148.53Z"/>
        <path class="cls-10" d="M462.36,159.16h92.15a1.77,1.77,0,0,1,1.77,1.77h0a1.77,1.77,0,0,1-1.77,1.77H462.36a1.77,1.77,0,0,1-1.77-1.77h0A1.77,1.77,0,0,1,462.36,159.16Z"/>
        <rect class="cls-9" x="414.52" y="198.15" width="35.44" height="31.9" rx="4.5"/>
        <path class="cls-10" d="M462.36,198.15h92.15a1.77,1.77,0,0,1,1.77,1.77h0a1.77,1.77,0,0,1-1.77,1.77H462.36a1.77,1.77,0,0,1-1.77-1.77h0A1.77,1.77,0,0,1,462.36,198.15Z"/>
        <rect class="cls-10" x="460.59" y="208.78" width="96.33" height="3.54" rx="1.59"/>
        <line class="cls-11" x1="485.72" y1="42" x2="485.72" y2="20"/>
        <line class="cls-11" x1="485.72" y1="79" x2="485.72" y2="50.13"/>
        <circle class="cls-12" cx="485.72" cy="79" r="4"/>
        <circle class="cls-13" cx="485.72" cy="46" r="4"/>
        <line class="cls-11" x1="485.72" y1="42" x2="485.72" y2="20"/>
        <line class="cls-11" x1="485.72" y1="79" x2="485.72" y2="50.13"/>
        <circle class="cls-12" cx="485.72" cy="79" r="4"/>
        <circle class="cls-13" cx="485.72" cy="46" r="4"/>
        <line class="cls-11" x1="485.72" y1="279" x2="485.72" y2="310"/>
        <line class="cls-11" x1="485.72" y1="251" x2="485.72" y2="279.87"/>
        <circle class="cls-12" cx="485.72" cy="251" r="4"/>
        <line class="cls-11" x1="305.72" y1="168.5" x2="274.22" y2="168.5"/>
        <line class="cls-11" x1="333.22" y1="168.5" x2="304.35" y2="168.5"/>
        <circle class="cls-12" cx="333.22" cy="168.5" r="4"/>
        <g class="cls-4">
          <rect x="408.22" y="435.5" width="156" height="3"/>
        </g>
        <g class="cls-1">
          <path class="cls-14" d="M179.2,367.06H106.8l1-8.14c20.46-18.37,33.69-67.31,33.69-67.31a6.72,6.72,0,0,0-.87.18c-12,2.42-20.54,7.35-26.51,13.28l2.54-21.66c37.8-8.14,52.79-58.14,52.79-58.14-24.12,5.35-39.16,13.63-48.5,21.49l3.72-31.82c25.56,8.77,52-37.82,52-37.82l-1-.21.5-.32-.76.27c-28.25-6.09-43.35,10.06-48.25,16.77l.37-3.12c-.75,2-1.47,4-2.18,5.88h0v.08q-3,8.13-5.49,16.06h0q-2.17,6.76-4.06,13.4v-.06s-1.17-28.46-31.18-36c0,0,3.15,62.07,26.93,51.91h0c-2.2,9-4,17.66-5.56,26.07h0q-1.49,8.21-2.6,16l-.14.16.14-.12-.06.41h0q-1,7.06-1.7,13.78c.46-8.62-1.11-33.52-30.45-56.92,0,0-39,68.54,27.5,82l.44.38-.1-.31.6.13.27-3.52a370.77,370.77,0,0,0,.23,44.1h0c.07,1,.14,2,.21,2.95H27.09C-.85,424.73,42.61,456.4,42.61,456.4h120C209.21,397.66,179.2,367.06,179.2,367.06Z"/>
        </g>
        <path class="cls-15" d="M102.72,389s-19-83,23-190"/>
        <path class="cls-16" d="M28.72,364h147s29,37-16,92h-116S1.72,418,28.72,364Z"/>
        <path class="cls-17" d="M123.61,204.5s14.61-26,49.61-18c0,0-28.93,49.26-55,33.13Z"/>
        <path class="cls-17" d="M114.35,232.09s-1.13-26.59-30.13-33.59c0,0,3,58,26,48.5Z"/>
        <path class="cls-17" d="M104.87,271.36s5.35-27.86,61.35-39.86c0,0-17.86,57.62-63.93,55.31Z"/>
        <path class="cls-17" d="M100.33,302.63s5.89-29.13-29.11-56.13c0,0-38,64.67,27.48,76.83Z"/>
        <path class="cls-17" d="M99.28,342.67s-4.06-41.17,39.94-49.17c0,0-16.07,57.49-40,67.74Z"/>
        <path class="cls-18" d="M118.72,220s38-29,54-34"/>
        <path class="cls-18" d="M102.22,286.5s46-49,64-55"/>
        <path class="cls-18" d="M84.22,198.5s28,38,26,48"/>
        <path class="cls-18" d="M71.22,246.5s15,68,27,77"/>
        <path class="cls-18" d="M99.22,361.5s24-66,40-68"/>
        <g class="cls-4">
          <path d="M175.72,364h-147c-.33.67-.65,1.34-1,2h143s28.29,36.11-14.4,90h3.4C204.72,401,175.72,364,175.72,364Z"/>
        </g>
        <rect class="cls-10" y="455.6" width="971.44" height="32.93"/>
        <rect class="cls-10" x="41.16" y="488.53" width="889.11" height="13.47"/>
        <rect class="cls-19" x="41.16" y="488.53" width="889.11" height="4.49"/>
        <line class="cls-11" x1="690.22" y1="168.5" x2="696.22" y2="168.5"/>
        <line class="cls-11" x1="637.22" y1="168.5" x2="682.1" y2="168.5"/>
        <circle class="cls-12" cx="637.22" cy="168.5" r="4"/>
        <circle class="cls-13" cx="686.22" cy="168.5" r="4"/>
        <g class="cls-1">
          <path class="cls-20" d="M912.72,444.88l.1-.15c.21-.32.41-.65.61-1l.11-.19c.19-.33.38-.66.55-1l.09-.17c.2-.39.39-.78.56-1.19h0a25.28,25.28,0,0,0,.94-2.51l.1-.33c.09-.31.18-.62.26-.93l.1-.44c.07-.28.13-.56.18-.85a2.7,2.7,0,0,1,.09-.48c0-.16.09-.56.13-.85a2.2,2.2,0,0,1,.06-.49,5.31,5.31,0,0,0,.08-.92V349H902.83V308.52h-17V349H874.11V290.86h-17V349h-6.39V282.55h-17V349h-15v82.6c0,13.48,11.21,24.4,25,24.4h48A25.2,25.2,0,0,0,912,445.94h0C912.21,445.59,912.46,445.23,912.72,444.88Z"/>
        </g>
        <rect class="cls-5" x="835.72" y="321" width="16" height="100"/>
        <rect class="cls-17" x="835.72" y="288" width="16" height="33"/>
        <rect class="cls-5" x="857.72" y="329" width="16" height="100"/>
        <rect class="cls-16" x="857.72" y="296" width="16" height="33"/>
        <rect class="cls-5" x="884.72" y="346" width="16" height="100"/>
        <rect class="cls-21" x="884.72" y="313" width="16" height="33"/>
        <path class="cls-16" d="M821.72,352h92v79.5a23.5,23.5,0,0,1-23.5,23.5h-45a23.5,23.5,0,0,1-23.5-23.5V352Z"/>
        <g class="cls-4">
          <path d="M821.72,352v4h88v79.5a23.37,23.37,0,0,1-5,14.49,23.43,23.43,0,0,0,9-18.49V352Z"/>
        </g>
      </g>
    </g>
  </g>
</svg>
